<mxfile host="app.diagrams.net" modified="2023-05-19T18:52:33.162Z" agent="Mozilla/5.0 (Macintosh; Intel Mac OS X 10_15_7) AppleWebKit/537.36 (KHTML, like Gecko) Chrome/113.0.0.0 Safari/537.36" etag="BClNd3ciSGm3My12iHYI" version="21.1.8" type="device">
  <diagram name="Page-1" id="e7e014a7-5840-1c2e-5031-d8a46d1fe8dd">
    <mxGraphModel dx="4754" dy="1785" grid="1" gridSize="10" guides="1" tooltips="1" connect="1" arrows="1" fold="1" page="1" pageScale="1" pageWidth="1169" pageHeight="826" background="none" math="0" shadow="0">
      <root>
        <mxCell id="0" />
        <mxCell id="1" parent="0" />
        <mxCell id="uQsPy5YsGrtOCWHAuRWt-41" value="Jeu" style="swimlane;fontStyle=1;align=center;verticalAlign=top;childLayout=stackLayout;horizontal=1;startSize=26;horizontalStack=0;resizeParent=1;resizeParentMax=0;resizeLast=0;collapsible=1;marginBottom=0;whiteSpace=wrap;html=1;" vertex="1" parent="1">
          <mxGeometry x="720" y="80" width="350" height="1360" as="geometry" />
        </mxCell>
        <mxCell id="uQsPy5YsGrtOCWHAuRWt-42" value="- maScene:createjs.Stage" style="text;strokeColor=none;fillColor=none;align=left;verticalAlign=top;spacingLeft=4;spacingRight=4;overflow=hidden;rotatable=0;points=[[0,0.5],[1,0.5]];portConstraint=eastwest;whiteSpace=wrap;html=1;" vertex="1" parent="uQsPy5YsGrtOCWHAuRWt-41">
          <mxGeometry y="26" width="350" height="26" as="geometry" />
        </mxCell>
        <mxCell id="uQsPy5YsGrtOCWHAuRWt-45" value="- leDemarer:Demarrer" style="text;strokeColor=none;fillColor=none;align=left;verticalAlign=top;spacingLeft=4;spacingRight=4;overflow=hidden;rotatable=0;points=[[0,0.5],[1,0.5]];portConstraint=eastwest;whiteSpace=wrap;html=1;" vertex="1" parent="uQsPy5YsGrtOCWHAuRWt-41">
          <mxGeometry y="52" width="350" height="26" as="geometry" />
        </mxCell>
        <mxCell id="uQsPy5YsGrtOCWHAuRWt-46" value="- minY:number" style="text;strokeColor=none;fillColor=none;align=left;verticalAlign=top;spacingLeft=4;spacingRight=4;overflow=hidden;rotatable=0;points=[[0,0.5],[1,0.5]];portConstraint=eastwest;whiteSpace=wrap;html=1;" vertex="1" parent="uQsPy5YsGrtOCWHAuRWt-41">
          <mxGeometry y="78" width="350" height="26" as="geometry" />
        </mxCell>
        <mxCell id="uQsPy5YsGrtOCWHAuRWt-47" value="- maxY:number" style="text;strokeColor=none;fillColor=none;align=left;verticalAlign=top;spacingLeft=4;spacingRight=4;overflow=hidden;rotatable=0;points=[[0,0.5],[1,0.5]];portConstraint=eastwest;whiteSpace=wrap;html=1;" vertex="1" parent="uQsPy5YsGrtOCWHAuRWt-41">
          <mxGeometry y="104" width="350" height="26" as="geometry" />
        </mxCell>
        <mxCell id="uQsPy5YsGrtOCWHAuRWt-48" value="- minuterieMouche:number" style="text;strokeColor=none;fillColor=none;align=left;verticalAlign=top;spacingLeft=4;spacingRight=4;overflow=hidden;rotatable=0;points=[[0,0.5],[1,0.5]];portConstraint=eastwest;whiteSpace=wrap;html=1;" vertex="1" parent="uQsPy5YsGrtOCWHAuRWt-41">
          <mxGeometry y="130" width="350" height="26" as="geometry" />
        </mxCell>
        <mxCell id="uQsPy5YsGrtOCWHAuRWt-49" value="- minuterieObstacle:number" style="text;strokeColor=none;fillColor=none;align=left;verticalAlign=top;spacingLeft=4;spacingRight=4;overflow=hidden;rotatable=0;points=[[0,0.5],[1,0.5]];portConstraint=eastwest;whiteSpace=wrap;html=1;" vertex="1" parent="uQsPy5YsGrtOCWHAuRWt-41">
          <mxGeometry y="156" width="350" height="26" as="geometry" />
        </mxCell>
        <mxCell id="uQsPy5YsGrtOCWHAuRWt-50" value="- background1:Background" style="text;strokeColor=none;fillColor=none;align=left;verticalAlign=top;spacingLeft=4;spacingRight=4;overflow=hidden;rotatable=0;points=[[0,0.5],[1,0.5]];portConstraint=eastwest;whiteSpace=wrap;html=1;" vertex="1" parent="uQsPy5YsGrtOCWHAuRWt-41">
          <mxGeometry y="182" width="350" height="26" as="geometry" />
        </mxCell>
        <mxCell id="uQsPy5YsGrtOCWHAuRWt-51" value="- background2:Background" style="text;strokeColor=none;fillColor=none;align=left;verticalAlign=top;spacingLeft=4;spacingRight=4;overflow=hidden;rotatable=0;points=[[0,0.5],[1,0.5]];portConstraint=eastwest;whiteSpace=wrap;html=1;" vertex="1" parent="uQsPy5YsGrtOCWHAuRWt-41">
          <mxGeometry y="208" width="350" height="26" as="geometry" />
        </mxCell>
        <mxCell id="uQsPy5YsGrtOCWHAuRWt-52" value="- monMoustiquePointage:PointageMoustique" style="text;strokeColor=none;fillColor=none;align=left;verticalAlign=top;spacingLeft=4;spacingRight=4;overflow=hidden;rotatable=0;points=[[0,0.5],[1,0.5]];portConstraint=eastwest;whiteSpace=wrap;html=1;" vertex="1" parent="uQsPy5YsGrtOCWHAuRWt-41">
          <mxGeometry y="234" width="350" height="26" as="geometry" />
        </mxCell>
        <mxCell id="uQsPy5YsGrtOCWHAuRWt-53" value="- mesPoints:createjs.Text" style="text;strokeColor=none;fillColor=none;align=left;verticalAlign=top;spacingLeft=4;spacingRight=4;overflow=hidden;rotatable=0;points=[[0,0.5],[1,0.5]];portConstraint=eastwest;whiteSpace=wrap;html=1;" vertex="1" parent="uQsPy5YsGrtOCWHAuRWt-41">
          <mxGeometry y="260" width="350" height="26" as="geometry" />
        </mxCell>
        <mxCell id="uQsPy5YsGrtOCWHAuRWt-54" value="- minPoints:number" style="text;strokeColor=none;fillColor=none;align=left;verticalAlign=top;spacingLeft=4;spacingRight=4;overflow=hidden;rotatable=0;points=[[0,0.5],[1,0.5]];portConstraint=eastwest;whiteSpace=wrap;html=1;" vertex="1" parent="uQsPy5YsGrtOCWHAuRWt-41">
          <mxGeometry y="286" width="350" height="26" as="geometry" />
        </mxCell>
        <mxCell id="uQsPy5YsGrtOCWHAuRWt-55" value="- niveau:number" style="text;strokeColor=none;fillColor=none;align=left;verticalAlign=top;spacingLeft=4;spacingRight=4;overflow=hidden;rotatable=0;points=[[0,0.5],[1,0.5]];portConstraint=eastwest;whiteSpace=wrap;html=1;" vertex="1" parent="uQsPy5YsGrtOCWHAuRWt-41">
          <mxGeometry y="312" width="350" height="26" as="geometry" />
        </mxCell>
        <mxCell id="uQsPy5YsGrtOCWHAuRWt-56" value="- ptsPourWinNv1:number" style="text;strokeColor=none;fillColor=none;align=left;verticalAlign=top;spacingLeft=4;spacingRight=4;overflow=hidden;rotatable=0;points=[[0,0.5],[1,0.5]];portConstraint=eastwest;whiteSpace=wrap;html=1;" vertex="1" parent="uQsPy5YsGrtOCWHAuRWt-41">
          <mxGeometry y="338" width="350" height="26" as="geometry" />
        </mxCell>
        <mxCell id="uQsPy5YsGrtOCWHAuRWt-57" value="- ptsPourWinNv2:number" style="text;strokeColor=none;fillColor=none;align=left;verticalAlign=top;spacingLeft=4;spacingRight=4;overflow=hidden;rotatable=0;points=[[0,0.5],[1,0.5]];portConstraint=eastwest;whiteSpace=wrap;html=1;" vertex="1" parent="uQsPy5YsGrtOCWHAuRWt-41">
          <mxGeometry y="364" width="350" height="26" as="geometry" />
        </mxCell>
        <mxCell id="uQsPy5YsGrtOCWHAuRWt-58" value="- btnContinuer:Continuer" style="text;strokeColor=none;fillColor=none;align=left;verticalAlign=top;spacingLeft=4;spacingRight=4;overflow=hidden;rotatable=0;points=[[0,0.5],[1,0.5]];portConstraint=eastwest;whiteSpace=wrap;html=1;" vertex="1" parent="uQsPy5YsGrtOCWHAuRWt-41">
          <mxGeometry y="390" width="350" height="26" as="geometry" />
        </mxCell>
        <mxCell id="uQsPy5YsGrtOCWHAuRWt-59" value="- btnRestart:Restart" style="text;strokeColor=none;fillColor=none;align=left;verticalAlign=top;spacingLeft=4;spacingRight=4;overflow=hidden;rotatable=0;points=[[0,0.5],[1,0.5]];portConstraint=eastwest;whiteSpace=wrap;html=1;" vertex="1" parent="uQsPy5YsGrtOCWHAuRWt-41">
          <mxGeometry y="416" width="350" height="26" as="geometry" />
        </mxCell>
        <mxCell id="uQsPy5YsGrtOCWHAuRWt-60" value="- pageMort:RejouerMort" style="text;strokeColor=none;fillColor=none;align=left;verticalAlign=top;spacingLeft=4;spacingRight=4;overflow=hidden;rotatable=0;points=[[0,0.5],[1,0.5]];portConstraint=eastwest;whiteSpace=wrap;html=1;" vertex="1" parent="uQsPy5YsGrtOCWHAuRWt-41">
          <mxGeometry y="442" width="350" height="26" as="geometry" />
        </mxCell>
        <mxCell id="uQsPy5YsGrtOCWHAuRWt-61" value="- btnRejouer:Rejouer" style="text;strokeColor=none;fillColor=none;align=left;verticalAlign=top;spacingLeft=4;spacingRight=4;overflow=hidden;rotatable=0;points=[[0,0.5],[1,0.5]];portConstraint=eastwest;whiteSpace=wrap;html=1;" vertex="1" parent="uQsPy5YsGrtOCWHAuRWt-41">
          <mxGeometry y="468" width="350" height="26" as="geometry" />
        </mxCell>
        <mxCell id="uQsPy5YsGrtOCWHAuRWt-62" value="- estActif:Boolean" style="text;strokeColor=none;fillColor=none;align=left;verticalAlign=top;spacingLeft=4;spacingRight=4;overflow=hidden;rotatable=0;points=[[0,0.5],[1,0.5]];portConstraint=eastwest;whiteSpace=wrap;html=1;" vertex="1" parent="uQsPy5YsGrtOCWHAuRWt-41">
          <mxGeometry y="494" width="350" height="26" as="geometry" />
        </mxCell>
        <mxCell id="uQsPy5YsGrtOCWHAuRWt-63" value="- monMoustique:Moustique" style="text;strokeColor=none;fillColor=none;align=left;verticalAlign=top;spacingLeft=4;spacingRight=4;overflow=hidden;rotatable=0;points=[[0,0.5],[1,0.5]];portConstraint=eastwest;whiteSpace=wrap;html=1;" vertex="1" parent="uQsPy5YsGrtOCWHAuRWt-41">
          <mxGeometry y="520" width="350" height="26" as="geometry" />
        </mxCell>
        <mxCell id="uQsPy5YsGrtOCWHAuRWt-64" value="- monObstacle:Obstacle" style="text;strokeColor=none;fillColor=none;align=left;verticalAlign=top;spacingLeft=4;spacingRight=4;overflow=hidden;rotatable=0;points=[[0,0.5],[1,0.5]];portConstraint=eastwest;whiteSpace=wrap;html=1;" vertex="1" parent="uQsPy5YsGrtOCWHAuRWt-41">
          <mxGeometry y="546" width="350" height="26" as="geometry" />
        </mxCell>
        <mxCell id="uQsPy5YsGrtOCWHAuRWt-65" value="- maMouche:Mouche" style="text;strokeColor=none;fillColor=none;align=left;verticalAlign=top;spacingLeft=4;spacingRight=4;overflow=hidden;rotatable=0;points=[[0,0.5],[1,0.5]];portConstraint=eastwest;whiteSpace=wrap;html=1;" vertex="1" parent="uQsPy5YsGrtOCWHAuRWt-41">
          <mxGeometry y="572" width="350" height="26" as="geometry" />
        </mxCell>
        <mxCell id="uQsPy5YsGrtOCWHAuRWt-66" value="- vitesseObstacle:number" style="text;strokeColor=none;fillColor=none;align=left;verticalAlign=top;spacingLeft=4;spacingRight=4;overflow=hidden;rotatable=0;points=[[0,0.5],[1,0.5]];portConstraint=eastwest;whiteSpace=wrap;html=1;" vertex="1" parent="uQsPy5YsGrtOCWHAuRWt-41">
          <mxGeometry y="598" width="350" height="26" as="geometry" />
        </mxCell>
        <mxCell id="uQsPy5YsGrtOCWHAuRWt-67" value="- vitesseMouche:number" style="text;strokeColor=none;fillColor=none;align=left;verticalAlign=top;spacingLeft=4;spacingRight=4;overflow=hidden;rotatable=0;points=[[0,0.5],[1,0.5]];portConstraint=eastwest;whiteSpace=wrap;html=1;" vertex="1" parent="uQsPy5YsGrtOCWHAuRWt-41">
          <mxGeometry y="624" width="350" height="26" as="geometry" />
        </mxCell>
        <mxCell id="uQsPy5YsGrtOCWHAuRWt-68" value="- tMouches:Array&amp;lt;Mouche&amp;gt;" style="text;strokeColor=none;fillColor=none;align=left;verticalAlign=top;spacingLeft=4;spacingRight=4;overflow=hidden;rotatable=0;points=[[0,0.5],[1,0.5]];portConstraint=eastwest;whiteSpace=wrap;html=1;" vertex="1" parent="uQsPy5YsGrtOCWHAuRWt-41">
          <mxGeometry y="650" width="350" height="26" as="geometry" />
        </mxCell>
        <mxCell id="uQsPy5YsGrtOCWHAuRWt-69" value="- tObstacles:Array&amp;lt;Obstacle&amp;gt;" style="text;strokeColor=none;fillColor=none;align=left;verticalAlign=top;spacingLeft=4;spacingRight=4;overflow=hidden;rotatable=0;points=[[0,0.5],[1,0.5]];portConstraint=eastwest;whiteSpace=wrap;html=1;" vertex="1" parent="uQsPy5YsGrtOCWHAuRWt-41">
          <mxGeometry y="676" width="350" height="26" as="geometry" />
        </mxCell>
        <mxCell id="uQsPy5YsGrtOCWHAuRWt-100" value="- tProjectiles:Array&amp;lt;Projectile&amp;gt;" style="text;strokeColor=none;fillColor=none;align=left;verticalAlign=top;spacingLeft=4;spacingRight=4;overflow=hidden;rotatable=0;points=[[0,0.5],[1,0.5]];portConstraint=eastwest;whiteSpace=wrap;html=1;" vertex="1" parent="uQsPy5YsGrtOCWHAuRWt-41">
          <mxGeometry y="702" width="350" height="26" as="geometry" />
        </mxCell>
        <mxCell id="uQsPy5YsGrtOCWHAuRWt-101" value="- tCoeurs:Array&amp;lt;Coeurs&amp;gt;" style="text;strokeColor=none;fillColor=none;align=left;verticalAlign=top;spacingLeft=4;spacingRight=4;overflow=hidden;rotatable=0;points=[[0,0.5],[1,0.5]];portConstraint=eastwest;whiteSpace=wrap;html=1;" vertex="1" parent="uQsPy5YsGrtOCWHAuRWt-41">
          <mxGeometry y="728" width="350" height="26" as="geometry" />
        </mxCell>
        <mxCell id="uQsPy5YsGrtOCWHAuRWt-102" value="- resumerContexteAudio_lier" style="text;strokeColor=none;fillColor=none;align=left;verticalAlign=top;spacingLeft=4;spacingRight=4;overflow=hidden;rotatable=0;points=[[0,0.5],[1,0.5]];portConstraint=eastwest;whiteSpace=wrap;html=1;" vertex="1" parent="uQsPy5YsGrtOCWHAuRWt-41">
          <mxGeometry y="754" width="350" height="26" as="geometry" />
        </mxCell>
        <mxCell id="uQsPy5YsGrtOCWHAuRWt-43" value="" style="line;strokeWidth=1;fillColor=none;align=left;verticalAlign=middle;spacingTop=-1;spacingLeft=3;spacingRight=3;rotatable=0;labelPosition=right;points=[];portConstraint=eastwest;strokeColor=inherit;" vertex="1" parent="uQsPy5YsGrtOCWHAuRWt-41">
          <mxGeometry y="780" width="350" height="8" as="geometry" />
        </mxCell>
        <mxCell id="uQsPy5YsGrtOCWHAuRWt-44" value="+ debuter(refScene:createjs.Stage)" style="text;strokeColor=none;fillColor=none;align=left;verticalAlign=top;spacingLeft=4;spacingRight=4;overflow=hidden;rotatable=0;points=[[0,0.5],[1,0.5]];portConstraint=eastwest;whiteSpace=wrap;html=1;" vertex="1" parent="uQsPy5YsGrtOCWHAuRWt-41">
          <mxGeometry y="788" width="350" height="26" as="geometry" />
        </mxCell>
        <mxCell id="uQsPy5YsGrtOCWHAuRWt-103" value="+ musiqueMort():void" style="text;strokeColor=none;fillColor=none;align=left;verticalAlign=top;spacingLeft=4;spacingRight=4;overflow=hidden;rotatable=0;points=[[0,0.5],[1,0.5]];portConstraint=eastwest;whiteSpace=wrap;html=1;" vertex="1" parent="uQsPy5YsGrtOCWHAuRWt-41">
          <mxGeometry y="814" width="350" height="26" as="geometry" />
        </mxCell>
        <mxCell id="uQsPy5YsGrtOCWHAuRWt-104" value="+ soundRocket():void" style="text;strokeColor=none;fillColor=none;align=left;verticalAlign=top;spacingLeft=4;spacingRight=4;overflow=hidden;rotatable=0;points=[[0,0.5],[1,0.5]];portConstraint=eastwest;whiteSpace=wrap;html=1;" vertex="1" parent="uQsPy5YsGrtOCWHAuRWt-41">
          <mxGeometry y="840" width="350" height="26" as="geometry" />
        </mxCell>
        <mxCell id="uQsPy5YsGrtOCWHAuRWt-105" value="+ soundMouche():void" style="text;strokeColor=none;fillColor=none;align=left;verticalAlign=top;spacingLeft=4;spacingRight=4;overflow=hidden;rotatable=0;points=[[0,0.5],[1,0.5]];portConstraint=eastwest;whiteSpace=wrap;html=1;" vertex="1" parent="uQsPy5YsGrtOCWHAuRWt-41">
          <mxGeometry y="866" width="350" height="26" as="geometry" />
        </mxCell>
        <mxCell id="uQsPy5YsGrtOCWHAuRWt-106" value="- creerMouche():void" style="text;strokeColor=none;fillColor=none;align=left;verticalAlign=top;spacingLeft=4;spacingRight=4;overflow=hidden;rotatable=0;points=[[0,0.5],[1,0.5]];portConstraint=eastwest;whiteSpace=wrap;html=1;" vertex="1" parent="uQsPy5YsGrtOCWHAuRWt-41">
          <mxGeometry y="892" width="350" height="26" as="geometry" />
        </mxCell>
        <mxCell id="uQsPy5YsGrtOCWHAuRWt-107" value="- creerObstacle():void" style="text;strokeColor=none;fillColor=none;align=left;verticalAlign=top;spacingLeft=4;spacingRight=4;overflow=hidden;rotatable=0;points=[[0,0.5],[1,0.5]];portConstraint=eastwest;whiteSpace=wrap;html=1;" vertex="1" parent="uQsPy5YsGrtOCWHAuRWt-41">
          <mxGeometry y="918" width="350" height="26" as="geometry" />
        </mxCell>
        <mxCell id="uQsPy5YsGrtOCWHAuRWt-108" value="+ changerSkinMouche(refMaMouche:Mouche):void" style="text;strokeColor=none;fillColor=none;align=left;verticalAlign=top;spacingLeft=4;spacingRight=4;overflow=hidden;rotatable=0;points=[[0,0.5],[1,0.5]];portConstraint=eastwest;whiteSpace=wrap;html=1;" vertex="1" parent="uQsPy5YsGrtOCWHAuRWt-41">
          <mxGeometry y="944" width="350" height="26" as="geometry" />
        </mxCell>
        <mxCell id="uQsPy5YsGrtOCWHAuRWt-109" value="+ changerSkinObstacle(refMonObstacle:Obstacle):void" style="text;strokeColor=none;fillColor=none;align=left;verticalAlign=top;spacingLeft=4;spacingRight=4;overflow=hidden;rotatable=0;points=[[0,0.5],[1,0.5]];portConstraint=eastwest;whiteSpace=wrap;html=1;" vertex="1" parent="uQsPy5YsGrtOCWHAuRWt-41">
          <mxGeometry y="970" width="350" height="26" as="geometry" />
        </mxCell>
        <mxCell id="uQsPy5YsGrtOCWHAuRWt-110" value="+ mortMouche(refMaMouche:Mouche):void" style="text;strokeColor=none;fillColor=none;align=left;verticalAlign=top;spacingLeft=4;spacingRight=4;overflow=hidden;rotatable=0;points=[[0,0.5],[1,0.5]];portConstraint=eastwest;whiteSpace=wrap;html=1;" vertex="1" parent="uQsPy5YsGrtOCWHAuRWt-41">
          <mxGeometry y="996" width="350" height="26" as="geometry" />
        </mxCell>
        <mxCell id="uQsPy5YsGrtOCWHAuRWt-111" value="+ deleteMouche(refMaMouche:Mouche):void" style="text;strokeColor=none;fillColor=none;align=left;verticalAlign=top;spacingLeft=4;spacingRight=4;overflow=hidden;rotatable=0;points=[[0,0.5],[1,0.5]];portConstraint=eastwest;whiteSpace=wrap;html=1;" vertex="1" parent="uQsPy5YsGrtOCWHAuRWt-41">
          <mxGeometry y="1022" width="350" height="26" as="geometry" />
        </mxCell>
        <mxCell id="uQsPy5YsGrtOCWHAuRWt-112" value="+ deleteObstacle(refMonObstacle:Obstacle):void" style="text;strokeColor=none;fillColor=none;align=left;verticalAlign=top;spacingLeft=4;spacingRight=4;overflow=hidden;rotatable=0;points=[[0,0.5],[1,0.5]];portConstraint=eastwest;whiteSpace=wrap;html=1;" vertex="1" parent="uQsPy5YsGrtOCWHAuRWt-41">
          <mxGeometry y="1048" width="350" height="26" as="geometry" />
        </mxCell>
        <mxCell id="uQsPy5YsGrtOCWHAuRWt-113" value="+ deleteVie(refMonCoeur:Coeur):void" style="text;strokeColor=none;fillColor=none;align=left;verticalAlign=top;spacingLeft=4;spacingRight=4;overflow=hidden;rotatable=0;points=[[0,0.5],[1,0.5]];portConstraint=eastwest;whiteSpace=wrap;html=1;" vertex="1" parent="uQsPy5YsGrtOCWHAuRWt-41">
          <mxGeometry y="1074" width="350" height="26" as="geometry" />
        </mxCell>
        <mxCell id="uQsPy5YsGrtOCWHAuRWt-114" value="+ deleteProjectile(refMonProjectile:Projectile):void" style="text;strokeColor=none;fillColor=none;align=left;verticalAlign=top;spacingLeft=4;spacingRight=4;overflow=hidden;rotatable=0;points=[[0,0.5],[1,0.5]];portConstraint=eastwest;whiteSpace=wrap;html=1;" vertex="1" parent="uQsPy5YsGrtOCWHAuRWt-41">
          <mxGeometry y="1100" width="350" height="26" as="geometry" />
        </mxCell>
        <mxCell id="uQsPy5YsGrtOCWHAuRWt-115" value="+ tirer(X:number, Y:number):void" style="text;strokeColor=none;fillColor=none;align=left;verticalAlign=top;spacingLeft=4;spacingRight=4;overflow=hidden;rotatable=0;points=[[0,0.5],[1,0.5]];portConstraint=eastwest;whiteSpace=wrap;html=1;" vertex="1" parent="uQsPy5YsGrtOCWHAuRWt-41">
          <mxGeometry y="1126" width="350" height="26" as="geometry" />
        </mxCell>
        <mxCell id="uQsPy5YsGrtOCWHAuRWt-116" value="- incrementerPointage():void" style="text;strokeColor=none;fillColor=none;align=left;verticalAlign=top;spacingLeft=4;spacingRight=4;overflow=hidden;rotatable=0;points=[[0,0.5],[1,0.5]];portConstraint=eastwest;whiteSpace=wrap;html=1;" vertex="1" parent="uQsPy5YsGrtOCWHAuRWt-41">
          <mxGeometry y="1152" width="350" height="26" as="geometry" />
        </mxCell>
        <mxCell id="uQsPy5YsGrtOCWHAuRWt-117" value="+ clickBackground():void" style="text;strokeColor=none;fillColor=none;align=left;verticalAlign=top;spacingLeft=4;spacingRight=4;overflow=hidden;rotatable=0;points=[[0,0.5],[1,0.5]];portConstraint=eastwest;whiteSpace=wrap;html=1;" vertex="1" parent="uQsPy5YsGrtOCWHAuRWt-41">
          <mxGeometry y="1178" width="350" height="26" as="geometry" />
        </mxCell>
        <mxCell id="uQsPy5YsGrtOCWHAuRWt-119" value="+ restartGame():void" style="text;strokeColor=none;fillColor=none;align=left;verticalAlign=top;spacingLeft=4;spacingRight=4;overflow=hidden;rotatable=0;points=[[0,0.5],[1,0.5]];portConstraint=eastwest;whiteSpace=wrap;html=1;" vertex="1" parent="uQsPy5YsGrtOCWHAuRWt-41">
          <mxGeometry y="1204" width="350" height="26" as="geometry" />
        </mxCell>
        <mxCell id="uQsPy5YsGrtOCWHAuRWt-120" value="+ rejouerMort():void" style="text;strokeColor=none;fillColor=none;align=left;verticalAlign=top;spacingLeft=4;spacingRight=4;overflow=hidden;rotatable=0;points=[[0,0.5],[1,0.5]];portConstraint=eastwest;whiteSpace=wrap;html=1;" vertex="1" parent="uQsPy5YsGrtOCWHAuRWt-41">
          <mxGeometry y="1230" width="350" height="26" as="geometry" />
        </mxCell>
        <mxCell id="uQsPy5YsGrtOCWHAuRWt-121" value="+ arreterRejouerMort():void" style="text;strokeColor=none;fillColor=none;align=left;verticalAlign=top;spacingLeft=4;spacingRight=4;overflow=hidden;rotatable=0;points=[[0,0.5],[1,0.5]];portConstraint=eastwest;whiteSpace=wrap;html=1;" vertex="1" parent="uQsPy5YsGrtOCWHAuRWt-41">
          <mxGeometry y="1256" width="350" height="26" as="geometry" />
        </mxCell>
        <mxCell id="uQsPy5YsGrtOCWHAuRWt-122" value="- resumerContexteAudio():void" style="text;strokeColor=none;fillColor=none;align=left;verticalAlign=top;spacingLeft=4;spacingRight=4;overflow=hidden;rotatable=0;points=[[0,0.5],[1,0.5]];portConstraint=eastwest;whiteSpace=wrap;html=1;" vertex="1" parent="uQsPy5YsGrtOCWHAuRWt-41">
          <mxGeometry y="1282" width="350" height="26" as="geometry" />
        </mxCell>
        <mxCell id="uQsPy5YsGrtOCWHAuRWt-123" value="- changerMusic():void" style="text;strokeColor=none;fillColor=none;align=left;verticalAlign=top;spacingLeft=4;spacingRight=4;overflow=hidden;rotatable=0;points=[[0,0.5],[1,0.5]];portConstraint=eastwest;whiteSpace=wrap;html=1;" vertex="1" parent="uQsPy5YsGrtOCWHAuRWt-41">
          <mxGeometry y="1308" width="350" height="26" as="geometry" />
        </mxCell>
        <mxCell id="uQsPy5YsGrtOCWHAuRWt-124" value="+ arreter():void" style="text;strokeColor=none;fillColor=none;align=left;verticalAlign=top;spacingLeft=4;spacingRight=4;overflow=hidden;rotatable=0;points=[[0,0.5],[1,0.5]];portConstraint=eastwest;whiteSpace=wrap;html=1;" vertex="1" parent="uQsPy5YsGrtOCWHAuRWt-41">
          <mxGeometry y="1334" width="350" height="26" as="geometry" />
        </mxCell>
        <mxCell id="uQsPy5YsGrtOCWHAuRWt-125" value="App" style="swimlane;fontStyle=1;align=center;verticalAlign=top;childLayout=stackLayout;horizontal=1;startSize=26;horizontalStack=0;resizeParent=1;resizeParentMax=0;resizeLast=0;collapsible=1;marginBottom=0;whiteSpace=wrap;html=1;" vertex="1" parent="1">
          <mxGeometry x="-80" y="80" width="230" height="138" as="geometry" />
        </mxCell>
        <mxCell id="uQsPy5YsGrtOCWHAuRWt-126" value="- scene: createjs.Stage" style="text;strokeColor=none;fillColor=none;align=left;verticalAlign=top;spacingLeft=4;spacingRight=4;overflow=hidden;rotatable=0;points=[[0,0.5],[1,0.5]];portConstraint=eastwest;whiteSpace=wrap;html=1;" vertex="1" parent="uQsPy5YsGrtOCWHAuRWt-125">
          <mxGeometry y="26" width="230" height="26" as="geometry" />
        </mxCell>
        <mxCell id="uQsPy5YsGrtOCWHAuRWt-129" value="- monJeu: Jeu" style="text;strokeColor=none;fillColor=none;align=left;verticalAlign=top;spacingLeft=4;spacingRight=4;overflow=hidden;rotatable=0;points=[[0,0.5],[1,0.5]];portConstraint=eastwest;whiteSpace=wrap;html=1;" vertex="1" parent="uQsPy5YsGrtOCWHAuRWt-125">
          <mxGeometry y="52" width="230" height="26" as="geometry" />
        </mxCell>
        <mxCell id="uQsPy5YsGrtOCWHAuRWt-127" value="" style="line;strokeWidth=1;fillColor=none;align=left;verticalAlign=middle;spacingTop=-1;spacingLeft=3;spacingRight=3;rotatable=0;labelPosition=right;points=[];portConstraint=eastwest;strokeColor=inherit;" vertex="1" parent="uQsPy5YsGrtOCWHAuRWt-125">
          <mxGeometry y="78" width="230" height="8" as="geometry" />
        </mxCell>
        <mxCell id="uQsPy5YsGrtOCWHAuRWt-128" value="+ constructor()" style="text;strokeColor=none;fillColor=none;align=left;verticalAlign=top;spacingLeft=4;spacingRight=4;overflow=hidden;rotatable=0;points=[[0,0.5],[1,0.5]];portConstraint=eastwest;whiteSpace=wrap;html=1;" vertex="1" parent="uQsPy5YsGrtOCWHAuRWt-125">
          <mxGeometry y="86" width="230" height="26" as="geometry" />
        </mxCell>
        <mxCell id="uQsPy5YsGrtOCWHAuRWt-130" value="+ initialiser(refScene: createjs.Stage)" style="text;strokeColor=none;fillColor=none;align=left;verticalAlign=top;spacingLeft=4;spacingRight=4;overflow=hidden;rotatable=0;points=[[0,0.5],[1,0.5]];portConstraint=eastwest;whiteSpace=wrap;html=1;" vertex="1" parent="uQsPy5YsGrtOCWHAuRWt-125">
          <mxGeometry y="112" width="230" height="26" as="geometry" />
        </mxCell>
        <mxCell id="uQsPy5YsGrtOCWHAuRWt-131" value="Background" style="swimlane;fontStyle=1;align=center;verticalAlign=top;childLayout=stackLayout;horizontal=1;startSize=26;horizontalStack=0;resizeParent=1;resizeParentMax=0;resizeLast=0;collapsible=1;marginBottom=0;whiteSpace=wrap;html=1;" vertex="1" parent="1">
          <mxGeometry x="-80" y="280" width="480" height="164" as="geometry" />
        </mxCell>
        <mxCell id="uQsPy5YsGrtOCWHAuRWt-132" value="- monJeu: Jeu" style="text;strokeColor=none;fillColor=none;align=left;verticalAlign=top;spacingLeft=4;spacingRight=4;overflow=hidden;rotatable=0;points=[[0,0.5],[1,0.5]];portConstraint=eastwest;whiteSpace=wrap;html=1;" vertex="1" parent="uQsPy5YsGrtOCWHAuRWt-131">
          <mxGeometry y="26" width="480" height="26" as="geometry" />
        </mxCell>
        <mxCell id="uQsPy5YsGrtOCWHAuRWt-135" value="- refMinuterie: number" style="text;strokeColor=none;fillColor=none;align=left;verticalAlign=top;spacingLeft=4;spacingRight=4;overflow=hidden;rotatable=0;points=[[0,0.5],[1,0.5]];portConstraint=eastwest;whiteSpace=wrap;html=1;" vertex="1" parent="uQsPy5YsGrtOCWHAuRWt-131">
          <mxGeometry y="52" width="480" height="26" as="geometry" />
        </mxCell>
        <mxCell id="uQsPy5YsGrtOCWHAuRWt-133" value="" style="line;strokeWidth=1;fillColor=none;align=left;verticalAlign=middle;spacingTop=-1;spacingLeft=3;spacingRight=3;rotatable=0;labelPosition=right;points=[];portConstraint=eastwest;strokeColor=inherit;" vertex="1" parent="uQsPy5YsGrtOCWHAuRWt-131">
          <mxGeometry y="78" width="480" height="8" as="geometry" />
        </mxCell>
        <mxCell id="uQsPy5YsGrtOCWHAuRWt-134" value="+ contructor(refScene: createjs.Stage, unX:number, unY:number, refJeu:jeu)" style="text;strokeColor=none;fillColor=none;align=left;verticalAlign=top;spacingLeft=4;spacingRight=4;overflow=hidden;rotatable=0;points=[[0,0.5],[1,0.5]];portConstraint=eastwest;whiteSpace=wrap;html=1;" vertex="1" parent="uQsPy5YsGrtOCWHAuRWt-131">
          <mxGeometry y="86" width="480" height="26" as="geometry" />
        </mxCell>
        <mxCell id="uQsPy5YsGrtOCWHAuRWt-136" value="&lt;font color=&quot;#ff3333&quot;&gt;# dessiner():void&lt;/font&gt;" style="text;strokeColor=none;fillColor=none;align=left;verticalAlign=top;spacingLeft=4;spacingRight=4;overflow=hidden;rotatable=0;points=[[0,0.5],[1,0.5]];portConstraint=eastwest;whiteSpace=wrap;html=1;" vertex="1" parent="uQsPy5YsGrtOCWHAuRWt-131">
          <mxGeometry y="112" width="480" height="26" as="geometry" />
        </mxCell>
        <mxCell id="uQsPy5YsGrtOCWHAuRWt-137" value="- bgRouler():void" style="text;strokeColor=none;fillColor=none;align=left;verticalAlign=top;spacingLeft=4;spacingRight=4;overflow=hidden;rotatable=0;points=[[0,0.5],[1,0.5]];portConstraint=eastwest;whiteSpace=wrap;html=1;" vertex="1" parent="uQsPy5YsGrtOCWHAuRWt-131">
          <mxGeometry y="138" width="480" height="26" as="geometry" />
        </mxCell>
        <mxCell id="uQsPy5YsGrtOCWHAuRWt-138" value="Coeurs" style="swimlane;fontStyle=1;align=center;verticalAlign=top;childLayout=stackLayout;horizontal=1;startSize=26;horizontalStack=0;resizeParent=1;resizeParentMax=0;resizeLast=0;collapsible=1;marginBottom=0;whiteSpace=wrap;html=1;" vertex="1" parent="1">
          <mxGeometry x="-80" y="480" width="560" height="190" as="geometry" />
        </mxCell>
        <mxCell id="uQsPy5YsGrtOCWHAuRWt-139" value="- monMoustique: Moustique" style="text;strokeColor=none;fillColor=none;align=left;verticalAlign=top;spacingLeft=4;spacingRight=4;overflow=hidden;rotatable=0;points=[[0,0.5],[1,0.5]];portConstraint=eastwest;whiteSpace=wrap;html=1;" vertex="1" parent="uQsPy5YsGrtOCWHAuRWt-138">
          <mxGeometry y="26" width="560" height="26" as="geometry" />
        </mxCell>
        <mxCell id="uQsPy5YsGrtOCWHAuRWt-140" value="- monJeu: Jeu" style="text;strokeColor=none;fillColor=none;align=left;verticalAlign=top;spacingLeft=4;spacingRight=4;overflow=hidden;rotatable=0;points=[[0,0.5],[1,0.5]];portConstraint=eastwest;whiteSpace=wrap;html=1;" vertex="1" parent="uQsPy5YsGrtOCWHAuRWt-138">
          <mxGeometry y="52" width="560" height="26" as="geometry" />
        </mxCell>
        <mxCell id="uQsPy5YsGrtOCWHAuRWt-141" value="" style="line;strokeWidth=1;fillColor=none;align=left;verticalAlign=middle;spacingTop=-1;spacingLeft=3;spacingRight=3;rotatable=0;labelPosition=right;points=[];portConstraint=eastwest;strokeColor=inherit;" vertex="1" parent="uQsPy5YsGrtOCWHAuRWt-138">
          <mxGeometry y="78" width="560" height="8" as="geometry" />
        </mxCell>
        <mxCell id="uQsPy5YsGrtOCWHAuRWt-142" value="+ contructor(refScene: createjs.Stage, unX:number, unY:number, refMoustique: MOustique, refJeu:jeu)" style="text;strokeColor=none;fillColor=none;align=left;verticalAlign=top;spacingLeft=4;spacingRight=4;overflow=hidden;rotatable=0;points=[[0,0.5],[1,0.5]];portConstraint=eastwest;whiteSpace=wrap;html=1;" vertex="1" parent="uQsPy5YsGrtOCWHAuRWt-138">
          <mxGeometry y="86" width="560" height="26" as="geometry" />
        </mxCell>
        <mxCell id="uQsPy5YsGrtOCWHAuRWt-143" value="&lt;font color=&quot;#ff0000&quot;&gt;# dessiner():void&lt;/font&gt;" style="text;strokeColor=none;fillColor=none;align=left;verticalAlign=top;spacingLeft=4;spacingRight=4;overflow=hidden;rotatable=0;points=[[0,0.5],[1,0.5]];portConstraint=eastwest;whiteSpace=wrap;html=1;" vertex="1" parent="uQsPy5YsGrtOCWHAuRWt-138">
          <mxGeometry y="112" width="560" height="26" as="geometry" />
        </mxCell>
        <mxCell id="uQsPy5YsGrtOCWHAuRWt-144" value="+ perdreVie(refMonCoeur):void" style="text;strokeColor=none;fillColor=none;align=left;verticalAlign=top;spacingLeft=4;spacingRight=4;overflow=hidden;rotatable=0;points=[[0,0.5],[1,0.5]];portConstraint=eastwest;whiteSpace=wrap;html=1;" vertex="1" parent="uQsPy5YsGrtOCWHAuRWt-138">
          <mxGeometry y="138" width="560" height="26" as="geometry" />
        </mxCell>
        <mxCell id="uQsPy5YsGrtOCWHAuRWt-145" value="+ arreterCoeur():void" style="text;strokeColor=#b85450;fillColor=#f8cecc;align=left;verticalAlign=top;spacingLeft=4;spacingRight=4;overflow=hidden;rotatable=0;points=[[0,0.5],[1,0.5]];portConstraint=eastwest;whiteSpace=wrap;html=1;" vertex="1" parent="uQsPy5YsGrtOCWHAuRWt-138">
          <mxGeometry y="164" width="560" height="26" as="geometry" />
        </mxCell>
        <mxCell id="uQsPy5YsGrtOCWHAuRWt-146" value="Continuer" style="swimlane;fontStyle=1;align=center;verticalAlign=top;childLayout=stackLayout;horizontal=1;startSize=26;horizontalStack=0;resizeParent=1;resizeParentMax=0;resizeLast=0;collapsible=1;marginBottom=0;whiteSpace=wrap;html=1;" vertex="1" parent="1">
          <mxGeometry x="-80" y="710" width="480" height="138" as="geometry" />
        </mxCell>
        <mxCell id="uQsPy5YsGrtOCWHAuRWt-147" value="- monJeu: Jeu" style="text;strokeColor=none;fillColor=none;align=left;verticalAlign=top;spacingLeft=4;spacingRight=4;overflow=hidden;rotatable=0;points=[[0,0.5],[1,0.5]];portConstraint=eastwest;whiteSpace=wrap;html=1;" vertex="1" parent="uQsPy5YsGrtOCWHAuRWt-146">
          <mxGeometry y="26" width="480" height="26" as="geometry" />
        </mxCell>
        <mxCell id="uQsPy5YsGrtOCWHAuRWt-149" value="" style="line;strokeWidth=1;fillColor=none;align=left;verticalAlign=middle;spacingTop=-1;spacingLeft=3;spacingRight=3;rotatable=0;labelPosition=right;points=[];portConstraint=eastwest;strokeColor=inherit;" vertex="1" parent="uQsPy5YsGrtOCWHAuRWt-146">
          <mxGeometry y="52" width="480" height="8" as="geometry" />
        </mxCell>
        <mxCell id="uQsPy5YsGrtOCWHAuRWt-150" value="+ contructor(refScene: createjs.Stage, unX:number, unY:number, refJeu:jeu)" style="text;strokeColor=none;fillColor=none;align=left;verticalAlign=top;spacingLeft=4;spacingRight=4;overflow=hidden;rotatable=0;points=[[0,0.5],[1,0.5]];portConstraint=eastwest;whiteSpace=wrap;html=1;" vertex="1" parent="uQsPy5YsGrtOCWHAuRWt-146">
          <mxGeometry y="60" width="480" height="26" as="geometry" />
        </mxCell>
        <mxCell id="uQsPy5YsGrtOCWHAuRWt-151" value="&lt;font color=&quot;#ff0000&quot;&gt;# dessiner():void&lt;/font&gt;" style="text;strokeColor=none;fillColor=none;align=left;verticalAlign=top;spacingLeft=4;spacingRight=4;overflow=hidden;rotatable=0;points=[[0,0.5],[1,0.5]];portConstraint=eastwest;whiteSpace=wrap;html=1;" vertex="1" parent="uQsPy5YsGrtOCWHAuRWt-146">
          <mxGeometry y="86" width="480" height="26" as="geometry" />
        </mxCell>
        <mxCell id="uQsPy5YsGrtOCWHAuRWt-152" value="- arreterContinuer():void" style="text;strokeColor=#b85450;fillColor=#f8cecc;align=left;verticalAlign=top;spacingLeft=4;spacingRight=4;overflow=hidden;rotatable=0;points=[[0,0.5],[1,0.5]];portConstraint=eastwest;whiteSpace=wrap;html=1;" vertex="1" parent="uQsPy5YsGrtOCWHAuRWt-146">
          <mxGeometry y="112" width="480" height="26" as="geometry" />
        </mxCell>
        <mxCell id="uQsPy5YsGrtOCWHAuRWt-153" value="Demarrer" style="swimlane;fontStyle=1;align=center;verticalAlign=top;childLayout=stackLayout;horizontal=1;startSize=26;horizontalStack=0;resizeParent=1;resizeParentMax=0;resizeLast=0;collapsible=1;marginBottom=0;whiteSpace=wrap;html=1;" vertex="1" parent="1">
          <mxGeometry x="-80" y="890" width="480" height="164" as="geometry" />
        </mxCell>
        <mxCell id="uQsPy5YsGrtOCWHAuRWt-154" value="- monJeu: Jeu" style="text;strokeColor=none;fillColor=none;align=left;verticalAlign=top;spacingLeft=4;spacingRight=4;overflow=hidden;rotatable=0;points=[[0,0.5],[1,0.5]];portConstraint=eastwest;whiteSpace=wrap;html=1;" vertex="1" parent="uQsPy5YsGrtOCWHAuRWt-153">
          <mxGeometry y="26" width="480" height="26" as="geometry" />
        </mxCell>
        <mxCell id="uQsPy5YsGrtOCWHAuRWt-155" value="" style="line;strokeWidth=1;fillColor=none;align=left;verticalAlign=middle;spacingTop=-1;spacingLeft=3;spacingRight=3;rotatable=0;labelPosition=right;points=[];portConstraint=eastwest;strokeColor=inherit;" vertex="1" parent="uQsPy5YsGrtOCWHAuRWt-153">
          <mxGeometry y="52" width="480" height="8" as="geometry" />
        </mxCell>
        <mxCell id="uQsPy5YsGrtOCWHAuRWt-156" value="+ contructor(refScene: createjs.Stage, unX:number, unY:number, refJeu:jeu)" style="text;strokeColor=none;fillColor=none;align=left;verticalAlign=top;spacingLeft=4;spacingRight=4;overflow=hidden;rotatable=0;points=[[0,0.5],[1,0.5]];portConstraint=eastwest;whiteSpace=wrap;html=1;" vertex="1" parent="uQsPy5YsGrtOCWHAuRWt-153">
          <mxGeometry y="60" width="480" height="26" as="geometry" />
        </mxCell>
        <mxCell id="uQsPy5YsGrtOCWHAuRWt-157" value="&lt;font color=&quot;#ff0000&quot;&gt;# dessiner():void&lt;/font&gt;" style="text;strokeColor=none;fillColor=none;align=left;verticalAlign=top;spacingLeft=4;spacingRight=4;overflow=hidden;rotatable=0;points=[[0,0.5],[1,0.5]];portConstraint=eastwest;whiteSpace=wrap;html=1;" vertex="1" parent="uQsPy5YsGrtOCWHAuRWt-153">
          <mxGeometry y="86" width="480" height="26" as="geometry" />
        </mxCell>
        <mxCell id="uQsPy5YsGrtOCWHAuRWt-158" value="- debuterAffichage():void" style="text;strokeColor=none;fillColor=none;align=left;verticalAlign=top;spacingLeft=4;spacingRight=4;overflow=hidden;rotatable=0;points=[[0,0.5],[1,0.5]];portConstraint=eastwest;whiteSpace=wrap;html=1;" vertex="1" parent="uQsPy5YsGrtOCWHAuRWt-153">
          <mxGeometry y="112" width="480" height="26" as="geometry" />
        </mxCell>
        <mxCell id="uQsPy5YsGrtOCWHAuRWt-159" value="+ arreterDemarrer():void" style="text;strokeColor=#b85450;fillColor=#f8cecc;align=left;verticalAlign=top;spacingLeft=4;spacingRight=4;overflow=hidden;rotatable=0;points=[[0,0.5],[1,0.5]];portConstraint=eastwest;whiteSpace=wrap;html=1;" vertex="1" parent="uQsPy5YsGrtOCWHAuRWt-153">
          <mxGeometry y="138" width="480" height="26" as="geometry" />
        </mxCell>
        <mxCell id="uQsPy5YsGrtOCWHAuRWt-160" value="Mechant" style="swimlane;fontStyle=1;align=center;verticalAlign=top;childLayout=stackLayout;horizontal=1;startSize=26;horizontalStack=0;resizeParent=1;resizeParentMax=0;resizeLast=0;collapsible=1;marginBottom=0;whiteSpace=wrap;html=1;" vertex="1" parent="1">
          <mxGeometry x="-80" y="1100" width="640" height="216" as="geometry" />
        </mxCell>
        <mxCell id="uQsPy5YsGrtOCWHAuRWt-161" value="- avancer_lier" style="text;strokeColor=none;fillColor=none;align=left;verticalAlign=top;spacingLeft=4;spacingRight=4;overflow=hidden;rotatable=0;points=[[0,0.5],[1,0.5]];portConstraint=eastwest;whiteSpace=wrap;html=1;" vertex="1" parent="uQsPy5YsGrtOCWHAuRWt-160">
          <mxGeometry y="26" width="640" height="26" as="geometry" />
        </mxCell>
        <mxCell id="uQsPy5YsGrtOCWHAuRWt-167" value="+ vitesse" style="text;strokeColor=none;fillColor=none;align=left;verticalAlign=top;spacingLeft=4;spacingRight=4;overflow=hidden;rotatable=0;points=[[0,0.5],[1,0.5]];portConstraint=eastwest;whiteSpace=wrap;html=1;" vertex="1" parent="uQsPy5YsGrtOCWHAuRWt-160">
          <mxGeometry y="52" width="640" height="26" as="geometry" />
        </mxCell>
        <mxCell id="uQsPy5YsGrtOCWHAuRWt-168" value="- monJeu: Jeu" style="text;strokeColor=none;fillColor=none;align=left;verticalAlign=top;spacingLeft=4;spacingRight=4;overflow=hidden;rotatable=0;points=[[0,0.5],[1,0.5]];portConstraint=eastwest;whiteSpace=wrap;html=1;" vertex="1" parent="uQsPy5YsGrtOCWHAuRWt-160">
          <mxGeometry y="78" width="640" height="26" as="geometry" />
        </mxCell>
        <mxCell id="uQsPy5YsGrtOCWHAuRWt-169" value="- maScene:createjs.Stage" style="text;strokeColor=none;fillColor=none;align=left;verticalAlign=top;spacingLeft=4;spacingRight=4;overflow=hidden;rotatable=0;points=[[0,0.5],[1,0.5]];portConstraint=eastwest;whiteSpace=wrap;html=1;" vertex="1" parent="uQsPy5YsGrtOCWHAuRWt-160">
          <mxGeometry y="104" width="640" height="26" as="geometry" />
        </mxCell>
        <mxCell id="uQsPy5YsGrtOCWHAuRWt-170" value="+ tProjectiles: Array&amp;lt;Projectile&amp;gt;" style="text;strokeColor=none;fillColor=none;align=left;verticalAlign=top;spacingLeft=4;spacingRight=4;overflow=hidden;rotatable=0;points=[[0,0.5],[1,0.5]];portConstraint=eastwest;whiteSpace=wrap;html=1;" vertex="1" parent="uQsPy5YsGrtOCWHAuRWt-160">
          <mxGeometry y="130" width="640" height="26" as="geometry" />
        </mxCell>
        <mxCell id="uQsPy5YsGrtOCWHAuRWt-162" value="" style="line;strokeWidth=1;fillColor=none;align=left;verticalAlign=middle;spacingTop=-1;spacingLeft=3;spacingRight=3;rotatable=0;labelPosition=right;points=[];portConstraint=eastwest;strokeColor=inherit;" vertex="1" parent="uQsPy5YsGrtOCWHAuRWt-160">
          <mxGeometry y="156" width="640" height="8" as="geometry" />
        </mxCell>
        <mxCell id="uQsPy5YsGrtOCWHAuRWt-163" value="+ contructor(refScene: createjs.Stage, unX:number, unY:number, refLesVitesses: Number, refJeu:jeu)" style="text;strokeColor=none;fillColor=none;align=left;verticalAlign=top;spacingLeft=4;spacingRight=4;overflow=hidden;rotatable=0;points=[[0,0.5],[1,0.5]];portConstraint=eastwest;whiteSpace=wrap;html=1;" vertex="1" parent="uQsPy5YsGrtOCWHAuRWt-160">
          <mxGeometry y="164" width="640" height="26" as="geometry" />
        </mxCell>
        <mxCell id="uQsPy5YsGrtOCWHAuRWt-166" value="- avancer():void" style="text;strokeColor=none;fillColor=none;align=left;verticalAlign=top;spacingLeft=4;spacingRight=4;overflow=hidden;rotatable=0;points=[[0,0.5],[1,0.5]];portConstraint=eastwest;whiteSpace=wrap;html=1;" vertex="1" parent="uQsPy5YsGrtOCWHAuRWt-160">
          <mxGeometry y="190" width="640" height="26" as="geometry" />
        </mxCell>
        <mxCell id="uQsPy5YsGrtOCWHAuRWt-180" value="Mouche" style="swimlane;fontStyle=1;align=center;verticalAlign=top;childLayout=stackLayout;horizontal=1;startSize=26;horizontalStack=0;resizeParent=1;resizeParentMax=0;resizeLast=0;collapsible=1;marginBottom=0;whiteSpace=wrap;html=1;" vertex="1" parent="1">
          <mxGeometry x="-80" y="1360" width="740" height="268" as="geometry" />
        </mxCell>
        <mxCell id="uQsPy5YsGrtOCWHAuRWt-181" value="- monJeu: Jeu" style="text;strokeColor=none;fillColor=none;align=left;verticalAlign=top;spacingLeft=4;spacingRight=4;overflow=hidden;rotatable=0;points=[[0,0.5],[1,0.5]];portConstraint=eastwest;whiteSpace=wrap;html=1;" vertex="1" parent="uQsPy5YsGrtOCWHAuRWt-180">
          <mxGeometry y="26" width="740" height="26" as="geometry" />
        </mxCell>
        <mxCell id="uQsPy5YsGrtOCWHAuRWt-187" value="- maVitesse: number" style="text;strokeColor=none;fillColor=none;align=left;verticalAlign=top;spacingLeft=4;spacingRight=4;overflow=hidden;rotatable=0;points=[[0,0.5],[1,0.5]];portConstraint=eastwest;whiteSpace=wrap;html=1;" vertex="1" parent="uQsPy5YsGrtOCWHAuRWt-180">
          <mxGeometry y="52" width="740" height="26" as="geometry" />
        </mxCell>
        <mxCell id="uQsPy5YsGrtOCWHAuRWt-278" value="" style="endArrow=diamondThin;endFill=1;endSize=24;html=1;rounded=0;startArrow=open;startFill=0;exitX=1;exitY=0;exitDx=0;exitDy=0;entryX=-0.006;entryY=0.058;entryDx=0;entryDy=0;entryPerimeter=0;" edge="1" parent="uQsPy5YsGrtOCWHAuRWt-180" source="uQsPy5YsGrtOCWHAuRWt-180">
          <mxGeometry width="160" relative="1" as="geometry">
            <mxPoint x="560" y="190" as="sourcePoint" />
            <mxPoint x="800" y="-110" as="targetPoint" />
          </mxGeometry>
        </mxCell>
        <mxCell id="uQsPy5YsGrtOCWHAuRWt-290" value="infini" style="edgeLabel;html=1;align=center;verticalAlign=middle;resizable=0;points=[];" vertex="1" connectable="0" parent="uQsPy5YsGrtOCWHAuRWt-278">
          <mxGeometry x="-0.4752" relative="1" as="geometry">
            <mxPoint as="offset" />
          </mxGeometry>
        </mxCell>
        <mxCell id="uQsPy5YsGrtOCWHAuRWt-188" value="- tProjectiles : Array&amp;lt;Projectile&amp;gt;" style="text;strokeColor=none;fillColor=none;align=left;verticalAlign=top;spacingLeft=4;spacingRight=4;overflow=hidden;rotatable=0;points=[[0,0.5],[1,0.5]];portConstraint=eastwest;whiteSpace=wrap;html=1;" vertex="1" parent="uQsPy5YsGrtOCWHAuRWt-180">
          <mxGeometry y="78" width="740" height="26" as="geometry" />
        </mxCell>
        <mxCell id="uQsPy5YsGrtOCWHAuRWt-189" value="- minVerifierSiAnimDone: number" style="text;strokeColor=none;fillColor=none;align=left;verticalAlign=top;spacingLeft=4;spacingRight=4;overflow=hidden;rotatable=0;points=[[0,0.5],[1,0.5]];portConstraint=eastwest;whiteSpace=wrap;html=1;" vertex="1" parent="uQsPy5YsGrtOCWHAuRWt-180">
          <mxGeometry y="104" width="740" height="26" as="geometry" />
        </mxCell>
        <mxCell id="uQsPy5YsGrtOCWHAuRWt-182" value="" style="line;strokeWidth=1;fillColor=none;align=left;verticalAlign=middle;spacingTop=-1;spacingLeft=3;spacingRight=3;rotatable=0;labelPosition=right;points=[];portConstraint=eastwest;strokeColor=inherit;" vertex="1" parent="uQsPy5YsGrtOCWHAuRWt-180">
          <mxGeometry y="130" width="740" height="8" as="geometry" />
        </mxCell>
        <mxCell id="uQsPy5YsGrtOCWHAuRWt-183" value="+ contructor(refScene: createjs.Stage, unX:number, unY:number, refMaVitesse:number, refMesProjectiles:Array&amp;lt;Projectile&amp;gt;,&amp;nbsp; refJeu:jeu)" style="text;strokeColor=none;fillColor=none;align=left;verticalAlign=top;spacingLeft=4;spacingRight=4;overflow=hidden;rotatable=0;points=[[0,0.5],[1,0.5]];portConstraint=eastwest;whiteSpace=wrap;html=1;" vertex="1" parent="uQsPy5YsGrtOCWHAuRWt-180">
          <mxGeometry y="138" width="740" height="26" as="geometry" />
        </mxCell>
        <mxCell id="uQsPy5YsGrtOCWHAuRWt-184" value="&lt;font color=&quot;#ff0000&quot;&gt;# dessiner():void&lt;/font&gt;" style="text;strokeColor=none;fillColor=none;align=left;verticalAlign=top;spacingLeft=4;spacingRight=4;overflow=hidden;rotatable=0;points=[[0,0.5],[1,0.5]];portConstraint=eastwest;whiteSpace=wrap;html=1;" vertex="1" parent="uQsPy5YsGrtOCWHAuRWt-180">
          <mxGeometry y="164" width="740" height="26" as="geometry" />
        </mxCell>
        <mxCell id="uQsPy5YsGrtOCWHAuRWt-185" value="- verifierSiTouche():void" style="text;strokeColor=none;fillColor=none;align=left;verticalAlign=top;spacingLeft=4;spacingRight=4;overflow=hidden;rotatable=0;points=[[0,0.5],[1,0.5]];portConstraint=eastwest;whiteSpace=wrap;html=1;" vertex="1" parent="uQsPy5YsGrtOCWHAuRWt-180">
          <mxGeometry y="190" width="740" height="26" as="geometry" />
        </mxCell>
        <mxCell id="uQsPy5YsGrtOCWHAuRWt-186" value="- creuveMouche():void" style="text;strokeColor=none;fillColor=none;align=left;verticalAlign=top;spacingLeft=4;spacingRight=4;overflow=hidden;rotatable=0;points=[[0,0.5],[1,0.5]];portConstraint=eastwest;whiteSpace=wrap;html=1;" vertex="1" parent="uQsPy5YsGrtOCWHAuRWt-180">
          <mxGeometry y="216" width="740" height="26" as="geometry" />
        </mxCell>
        <mxCell id="uQsPy5YsGrtOCWHAuRWt-191" value="+ arreterMouche():void" style="text;strokeColor=#b85450;fillColor=#f8cecc;align=left;verticalAlign=top;spacingLeft=4;spacingRight=4;overflow=hidden;rotatable=0;points=[[0,0.5],[1,0.5]];portConstraint=eastwest;whiteSpace=wrap;html=1;" vertex="1" parent="uQsPy5YsGrtOCWHAuRWt-180">
          <mxGeometry y="242" width="740" height="26" as="geometry" />
        </mxCell>
        <mxCell id="uQsPy5YsGrtOCWHAuRWt-192" value="Moustique" style="swimlane;fontStyle=1;align=center;verticalAlign=top;childLayout=stackLayout;horizontal=1;startSize=26;horizontalStack=0;resizeParent=1;resizeParentMax=0;resizeLast=0;collapsible=1;marginBottom=0;whiteSpace=wrap;html=1;" vertex="1" parent="1">
          <mxGeometry x="-80" y="1690" width="1000" height="736" as="geometry" />
        </mxCell>
        <mxCell id="uQsPy5YsGrtOCWHAuRWt-193" value="- tTouches: Array&amp;lt;boolean&amp;gt;" style="text;strokeColor=none;fillColor=none;align=left;verticalAlign=top;spacingLeft=4;spacingRight=4;overflow=hidden;rotatable=0;points=[[0,0.5],[1,0.5]];portConstraint=eastwest;whiteSpace=wrap;html=1;" vertex="1" parent="uQsPy5YsGrtOCWHAuRWt-192">
          <mxGeometry y="26" width="1000" height="26" as="geometry" />
        </mxCell>
        <mxCell id="uQsPy5YsGrtOCWHAuRWt-194" value="- refMinuterie: number" style="text;strokeColor=none;fillColor=none;align=left;verticalAlign=top;spacingLeft=4;spacingRight=4;overflow=hidden;rotatable=0;points=[[0,0.5],[1,0.5]];portConstraint=eastwest;whiteSpace=wrap;html=1;" vertex="1" parent="uQsPy5YsGrtOCWHAuRWt-192">
          <mxGeometry y="52" width="1000" height="26" as="geometry" />
        </mxCell>
        <mxCell id="uQsPy5YsGrtOCWHAuRWt-195" value="- refMinuterieInv: number" style="text;strokeColor=none;fillColor=none;align=left;verticalAlign=top;spacingLeft=4;spacingRight=4;overflow=hidden;rotatable=0;points=[[0,0.5],[1,0.5]];portConstraint=eastwest;whiteSpace=wrap;html=1;" vertex="1" parent="uQsPy5YsGrtOCWHAuRWt-192">
          <mxGeometry y="78" width="1000" height="26" as="geometry" />
        </mxCell>
        <mxCell id="uQsPy5YsGrtOCWHAuRWt-196" value="- monJeu: Jeu" style="text;strokeColor=none;fillColor=none;align=left;verticalAlign=top;spacingLeft=4;spacingRight=4;overflow=hidden;rotatable=0;points=[[0,0.5],[1,0.5]];portConstraint=eastwest;whiteSpace=wrap;html=1;" vertex="1" parent="uQsPy5YsGrtOCWHAuRWt-192">
          <mxGeometry y="104" width="1000" height="26" as="geometry" />
        </mxCell>
        <mxCell id="uQsPy5YsGrtOCWHAuRWt-203" value="- droitBouger: boolean" style="text;strokeColor=none;fillColor=none;align=left;verticalAlign=top;spacingLeft=4;spacingRight=4;overflow=hidden;rotatable=0;points=[[0,0.5],[1,0.5]];portConstraint=eastwest;whiteSpace=wrap;html=1;" vertex="1" parent="uQsPy5YsGrtOCWHAuRWt-192">
          <mxGeometry y="130" width="1000" height="26" as="geometry" />
        </mxCell>
        <mxCell id="uQsPy5YsGrtOCWHAuRWt-204" value="- tPointsContact: Array&amp;lt;createjs.MovieClip&amp;gt;" style="text;strokeColor=none;fillColor=none;align=left;verticalAlign=top;spacingLeft=4;spacingRight=4;overflow=hidden;rotatable=0;points=[[0,0.5],[1,0.5]];portConstraint=eastwest;whiteSpace=wrap;html=1;" vertex="1" parent="uQsPy5YsGrtOCWHAuRWt-192">
          <mxGeometry y="156" width="1000" height="26" as="geometry" />
        </mxCell>
        <mxCell id="uQsPy5YsGrtOCWHAuRWt-205" value="- tCoeurs: Array&amp;lt;Coeurs&amp;gt;" style="text;strokeColor=none;fillColor=none;align=left;verticalAlign=top;spacingLeft=4;spacingRight=4;overflow=hidden;rotatable=0;points=[[0,0.5],[1,0.5]];portConstraint=eastwest;whiteSpace=wrap;html=1;" vertex="1" parent="uQsPy5YsGrtOCWHAuRWt-192">
          <mxGeometry y="182" width="1000" height="26" as="geometry" />
        </mxCell>
        <mxCell id="uQsPy5YsGrtOCWHAuRWt-206" value="- invincible: boolean" style="text;strokeColor=none;fillColor=none;align=left;verticalAlign=top;spacingLeft=4;spacingRight=4;overflow=hidden;rotatable=0;points=[[0,0.5],[1,0.5]];portConstraint=eastwest;whiteSpace=wrap;html=1;" vertex="1" parent="uQsPy5YsGrtOCWHAuRWt-192">
          <mxGeometry y="208" width="1000" height="26" as="geometry" />
        </mxCell>
        <mxCell id="uQsPy5YsGrtOCWHAuRWt-207" value="- refMinuterieTimeOut: number" style="text;strokeColor=none;fillColor=none;align=left;verticalAlign=top;spacingLeft=4;spacingRight=4;overflow=hidden;rotatable=0;points=[[0,0.5],[1,0.5]];portConstraint=eastwest;whiteSpace=wrap;html=1;" vertex="1" parent="uQsPy5YsGrtOCWHAuRWt-192">
          <mxGeometry y="234" width="1000" height="26" as="geometry" />
        </mxCell>
        <mxCell id="uQsPy5YsGrtOCWHAuRWt-208" value="- tMouches: Array&amp;lt;Mouche&amp;gt;" style="text;strokeColor=none;fillColor=none;align=left;verticalAlign=top;spacingLeft=4;spacingRight=4;overflow=hidden;rotatable=0;points=[[0,0.5],[1,0.5]];portConstraint=eastwest;whiteSpace=wrap;html=1;" vertex="1" parent="uQsPy5YsGrtOCWHAuRWt-192">
          <mxGeometry y="260" width="1000" height="26" as="geometry" />
        </mxCell>
        <mxCell id="uQsPy5YsGrtOCWHAuRWt-209" value="- tObstacles: Array&amp;lt;Obstacle&amp;gt;" style="text;strokeColor=none;fillColor=none;align=left;verticalAlign=top;spacingLeft=4;spacingRight=4;overflow=hidden;rotatable=0;points=[[0,0.5],[1,0.5]];portConstraint=eastwest;whiteSpace=wrap;html=1;" vertex="1" parent="uQsPy5YsGrtOCWHAuRWt-192">
          <mxGeometry y="286" width="1000" height="26" as="geometry" />
        </mxCell>
        <mxCell id="uQsPy5YsGrtOCWHAuRWt-210" value="- minVerifierSiAnimDone: number" style="text;strokeColor=none;fillColor=none;align=left;verticalAlign=top;spacingLeft=4;spacingRight=4;overflow=hidden;rotatable=0;points=[[0,0.5],[1,0.5]];portConstraint=eastwest;whiteSpace=wrap;html=1;" vertex="1" parent="uQsPy5YsGrtOCWHAuRWt-192">
          <mxGeometry y="312" width="1000" height="26" as="geometry" />
        </mxCell>
        <mxCell id="uQsPy5YsGrtOCWHAuRWt-211" value="- lastShotTime: number" style="text;strokeColor=none;fillColor=none;align=left;verticalAlign=top;spacingLeft=4;spacingRight=4;overflow=hidden;rotatable=0;points=[[0,0.5],[1,0.5]];portConstraint=eastwest;whiteSpace=wrap;html=1;" vertex="1" parent="uQsPy5YsGrtOCWHAuRWt-192">
          <mxGeometry y="338" width="1000" height="26" as="geometry" />
        </mxCell>
        <mxCell id="uQsPy5YsGrtOCWHAuRWt-212" value="- shootIntervak: number" style="text;strokeColor=none;fillColor=none;align=left;verticalAlign=top;spacingLeft=4;spacingRight=4;overflow=hidden;rotatable=0;points=[[0,0.5],[1,0.5]];portConstraint=eastwest;whiteSpace=wrap;html=1;" vertex="1" parent="uQsPy5YsGrtOCWHAuRWt-192">
          <mxGeometry y="364" width="1000" height="26" as="geometry" />
        </mxCell>
        <mxCell id="uQsPy5YsGrtOCWHAuRWt-213" value="- tirPret: boolean" style="text;strokeColor=none;fillColor=none;align=left;verticalAlign=top;spacingLeft=4;spacingRight=4;overflow=hidden;rotatable=0;points=[[0,0.5],[1,0.5]];portConstraint=eastwest;whiteSpace=wrap;html=1;" vertex="1" parent="uQsPy5YsGrtOCWHAuRWt-192">
          <mxGeometry y="390" width="1000" height="26" as="geometry" />
        </mxCell>
        <mxCell id="uQsPy5YsGrtOCWHAuRWt-197" value="" style="line;strokeWidth=1;fillColor=none;align=left;verticalAlign=middle;spacingTop=-1;spacingLeft=3;spacingRight=3;rotatable=0;labelPosition=right;points=[];portConstraint=eastwest;strokeColor=inherit;" vertex="1" parent="uQsPy5YsGrtOCWHAuRWt-192">
          <mxGeometry y="416" width="1000" height="8" as="geometry" />
        </mxCell>
        <mxCell id="uQsPy5YsGrtOCWHAuRWt-198" value="+ contructor(refScene: createjs.Stage, unX:number, unY:number, refMesCoeurs: Array&amp;lt;Coeurs&amp;gt;, refTObstacles : Array&amp;lt;Obstacle&amp;gt;, refTMouches: Array&amp;lt;Mouche&amp;gt;,&amp;nbsp; &amp;nbsp;refJeu:jeu)" style="text;strokeColor=none;fillColor=none;align=left;verticalAlign=top;spacingLeft=4;spacingRight=4;overflow=hidden;rotatable=0;points=[[0,0.5],[1,0.5]];portConstraint=eastwest;whiteSpace=wrap;html=1;" vertex="1" parent="uQsPy5YsGrtOCWHAuRWt-192">
          <mxGeometry y="424" width="1000" height="26" as="geometry" />
        </mxCell>
        <mxCell id="uQsPy5YsGrtOCWHAuRWt-199" value="&lt;font color=&quot;#ff0000&quot;&gt;# dessiner():void&lt;/font&gt;" style="text;strokeColor=none;fillColor=none;align=left;verticalAlign=top;spacingLeft=4;spacingRight=4;overflow=hidden;rotatable=0;points=[[0,0.5],[1,0.5]];portConstraint=eastwest;whiteSpace=wrap;html=1;" vertex="1" parent="uQsPy5YsGrtOCWHAuRWt-192">
          <mxGeometry y="450" width="1000" height="26" as="geometry" />
        </mxCell>
        <mxCell id="uQsPy5YsGrtOCWHAuRWt-200" value="- verifierCollisionObstacles(): void" style="text;strokeColor=none;fillColor=none;align=left;verticalAlign=top;spacingLeft=4;spacingRight=4;overflow=hidden;rotatable=0;points=[[0,0.5],[1,0.5]];portConstraint=eastwest;whiteSpace=wrap;html=1;" vertex="1" parent="uQsPy5YsGrtOCWHAuRWt-192">
          <mxGeometry y="476" width="1000" height="26" as="geometry" />
        </mxCell>
        <mxCell id="uQsPy5YsGrtOCWHAuRWt-214" value="- verifierCollisionMouches(): void" style="text;strokeColor=none;fillColor=none;align=left;verticalAlign=top;spacingLeft=4;spacingRight=4;overflow=hidden;rotatable=0;points=[[0,0.5],[1,0.5]];portConstraint=eastwest;whiteSpace=wrap;html=1;" vertex="1" parent="uQsPy5YsGrtOCWHAuRWt-192">
          <mxGeometry y="502" width="1000" height="26" as="geometry" />
        </mxCell>
        <mxCell id="uQsPy5YsGrtOCWHAuRWt-201" value="- debutInvicible(): void" style="text;strokeColor=none;fillColor=none;align=left;verticalAlign=top;spacingLeft=4;spacingRight=4;overflow=hidden;rotatable=0;points=[[0,0.5],[1,0.5]];portConstraint=eastwest;whiteSpace=wrap;html=1;" vertex="1" parent="uQsPy5YsGrtOCWHAuRWt-192">
          <mxGeometry y="528" width="1000" height="26" as="geometry" />
        </mxCell>
        <mxCell id="uQsPy5YsGrtOCWHAuRWt-202" value="- arretInvicible(): void" style="text;strokeColor=none;fillColor=none;align=left;verticalAlign=top;spacingLeft=4;spacingRight=4;overflow=hidden;rotatable=0;points=[[0,0.5],[1,0.5]];portConstraint=eastwest;whiteSpace=wrap;html=1;" vertex="1" parent="uQsPy5YsGrtOCWHAuRWt-192">
          <mxGeometry y="554" width="1000" height="26" as="geometry" />
        </mxCell>
        <mxCell id="uQsPy5YsGrtOCWHAuRWt-215" value="- activerTouche(evenement: KeyboardEvent): void" style="text;strokeColor=none;fillColor=none;align=left;verticalAlign=top;spacingLeft=4;spacingRight=4;overflow=hidden;rotatable=0;points=[[0,0.5],[1,0.5]];portConstraint=eastwest;whiteSpace=wrap;html=1;" vertex="1" parent="uQsPy5YsGrtOCWHAuRWt-192">
          <mxGeometry y="580" width="1000" height="26" as="geometry" />
        </mxCell>
        <mxCell id="uQsPy5YsGrtOCWHAuRWt-216" value="- desactiverTouche(evenement: KeyboardEvent): void" style="text;strokeColor=none;fillColor=none;align=left;verticalAlign=top;spacingLeft=4;spacingRight=4;overflow=hidden;rotatable=0;points=[[0,0.5],[1,0.5]];portConstraint=eastwest;whiteSpace=wrap;html=1;" vertex="1" parent="uQsPy5YsGrtOCWHAuRWt-192">
          <mxGeometry y="606" width="1000" height="26" as="geometry" />
        </mxCell>
        <mxCell id="uQsPy5YsGrtOCWHAuRWt-217" value="- bouger():void" style="text;strokeColor=none;fillColor=none;align=left;verticalAlign=top;spacingLeft=4;spacingRight=4;overflow=hidden;rotatable=0;points=[[0,0.5],[1,0.5]];portConstraint=eastwest;whiteSpace=wrap;html=1;" vertex="1" parent="uQsPy5YsGrtOCWHAuRWt-192">
          <mxGeometry y="632" width="1000" height="26" as="geometry" />
        </mxCell>
        <mxCell id="uQsPy5YsGrtOCWHAuRWt-218" value="- shoot(): void" style="text;strokeColor=none;fillColor=none;align=left;verticalAlign=top;spacingLeft=4;spacingRight=4;overflow=hidden;rotatable=0;points=[[0,0.5],[1,0.5]];portConstraint=eastwest;whiteSpace=wrap;html=1;" vertex="1" parent="uQsPy5YsGrtOCWHAuRWt-192">
          <mxGeometry y="658" width="1000" height="26" as="geometry" />
        </mxCell>
        <mxCell id="uQsPy5YsGrtOCWHAuRWt-219" value="- mort():void" style="text;strokeColor=none;fillColor=none;align=left;verticalAlign=top;spacingLeft=4;spacingRight=4;overflow=hidden;rotatable=0;points=[[0,0.5],[1,0.5]];portConstraint=eastwest;whiteSpace=wrap;html=1;" vertex="1" parent="uQsPy5YsGrtOCWHAuRWt-192">
          <mxGeometry y="684" width="1000" height="26" as="geometry" />
        </mxCell>
        <mxCell id="uQsPy5YsGrtOCWHAuRWt-220" value="+ arreterMoustique(): void" style="text;strokeColor=#b85450;fillColor=#f8cecc;align=left;verticalAlign=top;spacingLeft=4;spacingRight=4;overflow=hidden;rotatable=0;points=[[0,0.5],[1,0.5]];portConstraint=eastwest;whiteSpace=wrap;html=1;" vertex="1" parent="uQsPy5YsGrtOCWHAuRWt-192">
          <mxGeometry y="710" width="1000" height="26" as="geometry" />
        </mxCell>
        <mxCell id="uQsPy5YsGrtOCWHAuRWt-221" value="ObjetVisible &lt;font color=&quot;#ff0000&quot;&gt;(abstract)&lt;/font&gt;" style="swimlane;fontStyle=1;align=center;verticalAlign=top;childLayout=stackLayout;horizontal=1;startSize=26;horizontalStack=0;resizeParent=1;resizeParentMax=0;resizeLast=0;collapsible=1;marginBottom=0;whiteSpace=wrap;html=1;" vertex="1" parent="1">
          <mxGeometry x="-900" y="2478" width="370" height="164" as="geometry" />
        </mxCell>
        <mxCell id="uQsPy5YsGrtOCWHAuRWt-222" value="- maScene: createjs.Stage" style="text;strokeColor=none;fillColor=none;align=left;verticalAlign=top;spacingLeft=4;spacingRight=4;overflow=hidden;rotatable=0;points=[[0,0.5],[1,0.5]];portConstraint=eastwest;whiteSpace=wrap;html=1;" vertex="1" parent="uQsPy5YsGrtOCWHAuRWt-221">
          <mxGeometry y="26" width="370" height="26" as="geometry" />
        </mxCell>
        <mxCell id="uQsPy5YsGrtOCWHAuRWt-223" value="- monJeu: Jeu" style="text;strokeColor=none;fillColor=none;align=left;verticalAlign=top;spacingLeft=4;spacingRight=4;overflow=hidden;rotatable=0;points=[[0,0.5],[1,0.5]];portConstraint=eastwest;whiteSpace=wrap;html=1;" vertex="1" parent="uQsPy5YsGrtOCWHAuRWt-221">
          <mxGeometry y="52" width="370" height="26" as="geometry" />
        </mxCell>
        <mxCell id="uQsPy5YsGrtOCWHAuRWt-224" value="" style="line;strokeWidth=1;fillColor=none;align=left;verticalAlign=middle;spacingTop=-1;spacingLeft=3;spacingRight=3;rotatable=0;labelPosition=right;points=[];portConstraint=eastwest;strokeColor=inherit;" vertex="1" parent="uQsPy5YsGrtOCWHAuRWt-221">
          <mxGeometry y="78" width="370" height="8" as="geometry" />
        </mxCell>
        <mxCell id="uQsPy5YsGrtOCWHAuRWt-225" value="+ constructor(refScene:createjs.stage, unX:numer, unY:number)" style="text;strokeColor=none;fillColor=none;align=left;verticalAlign=top;spacingLeft=4;spacingRight=4;overflow=hidden;rotatable=0;points=[[0,0.5],[1,0.5]];portConstraint=eastwest;whiteSpace=wrap;html=1;" vertex="1" parent="uQsPy5YsGrtOCWHAuRWt-221">
          <mxGeometry y="86" width="370" height="26" as="geometry" />
        </mxCell>
        <mxCell id="uQsPy5YsGrtOCWHAuRWt-226" value="&lt;font color=&quot;#ff0000&quot;&gt;# dessiner():void (abstract)&lt;/font&gt;" style="text;strokeColor=none;fillColor=none;align=left;verticalAlign=top;spacingLeft=4;spacingRight=4;overflow=hidden;rotatable=0;points=[[0,0.5],[1,0.5]];portConstraint=eastwest;whiteSpace=wrap;html=1;" vertex="1" parent="uQsPy5YsGrtOCWHAuRWt-221">
          <mxGeometry y="112" width="370" height="26" as="geometry" />
        </mxCell>
        <mxCell id="uQsPy5YsGrtOCWHAuRWt-227" value="+ arreterObjetVisible(): void" style="text;strokeColor=#b85450;fillColor=#f8cecc;align=left;verticalAlign=top;spacingLeft=4;spacingRight=4;overflow=hidden;rotatable=0;points=[[0,0.5],[1,0.5]];portConstraint=eastwest;whiteSpace=wrap;html=1;" vertex="1" parent="uQsPy5YsGrtOCWHAuRWt-221">
          <mxGeometry y="138" width="370" height="26" as="geometry" />
        </mxCell>
        <mxCell id="uQsPy5YsGrtOCWHAuRWt-228" value="Obstacle" style="swimlane;fontStyle=1;align=center;verticalAlign=top;childLayout=stackLayout;horizontal=1;startSize=26;horizontalStack=0;resizeParent=1;resizeParentMax=0;resizeLast=0;collapsible=1;marginBottom=0;whiteSpace=wrap;html=1;" vertex="1" parent="1">
          <mxGeometry x="-80" y="2680" width="840" height="216" as="geometry" />
        </mxCell>
        <mxCell id="uQsPy5YsGrtOCWHAuRWt-230" value="- monJeu: Jeu" style="text;strokeColor=none;fillColor=none;align=left;verticalAlign=top;spacingLeft=4;spacingRight=4;overflow=hidden;rotatable=0;points=[[0,0.5],[1,0.5]];portConstraint=eastwest;whiteSpace=wrap;html=1;" vertex="1" parent="uQsPy5YsGrtOCWHAuRWt-228">
          <mxGeometry y="26" width="840" height="26" as="geometry" />
        </mxCell>
        <mxCell id="uQsPy5YsGrtOCWHAuRWt-235" value="- maVitesse:&amp;nbsp;" style="text;strokeColor=none;fillColor=none;align=left;verticalAlign=top;spacingLeft=4;spacingRight=4;overflow=hidden;rotatable=0;points=[[0,0.5],[1,0.5]];portConstraint=eastwest;whiteSpace=wrap;html=1;" vertex="1" parent="uQsPy5YsGrtOCWHAuRWt-228">
          <mxGeometry y="52" width="840" height="26" as="geometry" />
        </mxCell>
        <mxCell id="uQsPy5YsGrtOCWHAuRWt-236" value="- tProjectiles: Array&amp;lt;Projectiles&amp;gt;" style="text;strokeColor=none;fillColor=none;align=left;verticalAlign=top;spacingLeft=4;spacingRight=4;overflow=hidden;rotatable=0;points=[[0,0.5],[1,0.5]];portConstraint=eastwest;whiteSpace=wrap;html=1;" vertex="1" parent="uQsPy5YsGrtOCWHAuRWt-228">
          <mxGeometry y="78" width="840" height="26" as="geometry" />
        </mxCell>
        <mxCell id="uQsPy5YsGrtOCWHAuRWt-231" value="" style="line;strokeWidth=1;fillColor=none;align=left;verticalAlign=middle;spacingTop=-1;spacingLeft=3;spacingRight=3;rotatable=0;labelPosition=right;points=[];portConstraint=eastwest;strokeColor=inherit;" vertex="1" parent="uQsPy5YsGrtOCWHAuRWt-228">
          <mxGeometry y="104" width="840" height="8" as="geometry" />
        </mxCell>
        <mxCell id="uQsPy5YsGrtOCWHAuRWt-232" value="+ constructor(refScene:createjs.stage, unX:numer, unY:number, refMaVitesse:number, refMesProjectiles:Array&amp;lt;Projectiles&amp;gt;, refJeu:Jeu)" style="text;strokeColor=none;fillColor=none;align=left;verticalAlign=top;spacingLeft=4;spacingRight=4;overflow=hidden;rotatable=0;points=[[0,0.5],[1,0.5]];portConstraint=eastwest;whiteSpace=wrap;html=1;" vertex="1" parent="uQsPy5YsGrtOCWHAuRWt-228">
          <mxGeometry y="112" width="840" height="26" as="geometry" />
        </mxCell>
        <mxCell id="uQsPy5YsGrtOCWHAuRWt-233" value="&lt;font color=&quot;#ff0000&quot;&gt;# dessiner():void&amp;nbsp;&lt;/font&gt;" style="text;strokeColor=none;fillColor=none;align=left;verticalAlign=top;spacingLeft=4;spacingRight=4;overflow=hidden;rotatable=0;points=[[0,0.5],[1,0.5]];portConstraint=eastwest;whiteSpace=wrap;html=1;" vertex="1" parent="uQsPy5YsGrtOCWHAuRWt-228">
          <mxGeometry y="138" width="840" height="26" as="geometry" />
        </mxCell>
        <mxCell id="uQsPy5YsGrtOCWHAuRWt-234" value="- verifierSiTouche():void" style="text;strokeColor=none;fillColor=none;align=left;verticalAlign=top;spacingLeft=4;spacingRight=4;overflow=hidden;rotatable=0;points=[[0,0.5],[1,0.5]];portConstraint=eastwest;whiteSpace=wrap;html=1;" vertex="1" parent="uQsPy5YsGrtOCWHAuRWt-228">
          <mxGeometry y="164" width="840" height="26" as="geometry" />
        </mxCell>
        <mxCell id="uQsPy5YsGrtOCWHAuRWt-237" value="+ arreterObstacle():void" style="text;strokeColor=#b85450;fillColor=#f8cecc;align=left;verticalAlign=top;spacingLeft=4;spacingRight=4;overflow=hidden;rotatable=0;points=[[0,0.5],[1,0.5]];portConstraint=eastwest;whiteSpace=wrap;html=1;" vertex="1" parent="uQsPy5YsGrtOCWHAuRWt-228">
          <mxGeometry y="190" width="840" height="26" as="geometry" />
        </mxCell>
        <mxCell id="uQsPy5YsGrtOCWHAuRWt-238" value="PointageMoustique" style="swimlane;fontStyle=1;align=center;verticalAlign=top;childLayout=stackLayout;horizontal=1;startSize=26;horizontalStack=0;resizeParent=1;resizeParentMax=0;resizeLast=0;collapsible=1;marginBottom=0;whiteSpace=wrap;html=1;" vertex="1" parent="1">
          <mxGeometry x="-59.99999999999999" y="3170" width="720" height="138" as="geometry" />
        </mxCell>
        <mxCell id="uQsPy5YsGrtOCWHAuRWt-240" value="- monJeu: Jeu" style="text;strokeColor=none;fillColor=none;align=left;verticalAlign=top;spacingLeft=4;spacingRight=4;overflow=hidden;rotatable=0;points=[[0,0.5],[1,0.5]];portConstraint=eastwest;whiteSpace=wrap;html=1;" vertex="1" parent="uQsPy5YsGrtOCWHAuRWt-238">
          <mxGeometry y="26" width="720" height="26" as="geometry" />
        </mxCell>
        <mxCell id="uQsPy5YsGrtOCWHAuRWt-241" value="" style="line;strokeWidth=1;fillColor=none;align=left;verticalAlign=middle;spacingTop=-1;spacingLeft=3;spacingRight=3;rotatable=0;labelPosition=right;points=[];portConstraint=eastwest;strokeColor=inherit;" vertex="1" parent="uQsPy5YsGrtOCWHAuRWt-238">
          <mxGeometry y="52" width="720" height="8" as="geometry" />
        </mxCell>
        <mxCell id="uQsPy5YsGrtOCWHAuRWt-242" value="+ constructor(refScene:createjs.stage, unX:numer, unY:number, refJeu:jeu)" style="text;strokeColor=none;fillColor=none;align=left;verticalAlign=top;spacingLeft=4;spacingRight=4;overflow=hidden;rotatable=0;points=[[0,0.5],[1,0.5]];portConstraint=eastwest;whiteSpace=wrap;html=1;" vertex="1" parent="uQsPy5YsGrtOCWHAuRWt-238">
          <mxGeometry y="60" width="720" height="26" as="geometry" />
        </mxCell>
        <mxCell id="uQsPy5YsGrtOCWHAuRWt-245" value="&lt;font color=&quot;#ff0000&quot;&gt;# dessiner():void&lt;/font&gt;" style="text;strokeColor=none;fillColor=none;align=left;verticalAlign=top;spacingLeft=4;spacingRight=4;overflow=hidden;rotatable=0;points=[[0,0.5],[1,0.5]];portConstraint=eastwest;whiteSpace=wrap;html=1;" vertex="1" parent="uQsPy5YsGrtOCWHAuRWt-238">
          <mxGeometry y="86" width="720" height="26" as="geometry" />
        </mxCell>
        <mxCell id="uQsPy5YsGrtOCWHAuRWt-246" value="+ arreterPointageMoustique():void" style="text;strokeColor=#b85450;fillColor=#f8cecc;align=left;verticalAlign=top;spacingLeft=4;spacingRight=4;overflow=hidden;rotatable=0;points=[[0,0.5],[1,0.5]];portConstraint=eastwest;whiteSpace=wrap;html=1;" vertex="1" parent="uQsPy5YsGrtOCWHAuRWt-238">
          <mxGeometry y="112" width="720" height="26" as="geometry" />
        </mxCell>
        <mxCell id="uQsPy5YsGrtOCWHAuRWt-247" value="Projectile" style="swimlane;fontStyle=1;align=center;verticalAlign=top;childLayout=stackLayout;horizontal=1;startSize=26;horizontalStack=0;resizeParent=1;resizeParentMax=0;resizeLast=0;collapsible=1;marginBottom=0;whiteSpace=wrap;html=1;" vertex="1" parent="1">
          <mxGeometry x="-59.99999999999999" y="3340" width="720" height="164" as="geometry" />
        </mxCell>
        <mxCell id="uQsPy5YsGrtOCWHAuRWt-248" value="- monJeu: Jeu" style="text;strokeColor=none;fillColor=none;align=left;verticalAlign=top;spacingLeft=4;spacingRight=4;overflow=hidden;rotatable=0;points=[[0,0.5],[1,0.5]];portConstraint=eastwest;whiteSpace=wrap;html=1;" vertex="1" parent="uQsPy5YsGrtOCWHAuRWt-247">
          <mxGeometry y="26" width="720" height="26" as="geometry" />
        </mxCell>
        <mxCell id="uQsPy5YsGrtOCWHAuRWt-249" value="" style="line;strokeWidth=1;fillColor=none;align=left;verticalAlign=middle;spacingTop=-1;spacingLeft=3;spacingRight=3;rotatable=0;labelPosition=right;points=[];portConstraint=eastwest;strokeColor=inherit;" vertex="1" parent="uQsPy5YsGrtOCWHAuRWt-247">
          <mxGeometry y="52" width="720" height="8" as="geometry" />
        </mxCell>
        <mxCell id="uQsPy5YsGrtOCWHAuRWt-250" value="+ constructor(refScene:createjs.stage, unX:numer, unY:number, refJeu:jeu)" style="text;strokeColor=none;fillColor=none;align=left;verticalAlign=top;spacingLeft=4;spacingRight=4;overflow=hidden;rotatable=0;points=[[0,0.5],[1,0.5]];portConstraint=eastwest;whiteSpace=wrap;html=1;" vertex="1" parent="uQsPy5YsGrtOCWHAuRWt-247">
          <mxGeometry y="60" width="720" height="26" as="geometry" />
        </mxCell>
        <mxCell id="uQsPy5YsGrtOCWHAuRWt-251" value="&lt;font color=&quot;#ff0000&quot;&gt;# dessiner():void&lt;/font&gt;" style="text;strokeColor=none;fillColor=none;align=left;verticalAlign=top;spacingLeft=4;spacingRight=4;overflow=hidden;rotatable=0;points=[[0,0.5],[1,0.5]];portConstraint=eastwest;whiteSpace=wrap;html=1;" vertex="1" parent="uQsPy5YsGrtOCWHAuRWt-247">
          <mxGeometry y="86" width="720" height="26" as="geometry" />
        </mxCell>
        <mxCell id="uQsPy5YsGrtOCWHAuRWt-252" value="- avancer()" style="text;strokeColor=none;fillColor=none;align=left;verticalAlign=top;spacingLeft=4;spacingRight=4;overflow=hidden;rotatable=0;points=[[0,0.5],[1,0.5]];portConstraint=eastwest;whiteSpace=wrap;html=1;" vertex="1" parent="uQsPy5YsGrtOCWHAuRWt-247">
          <mxGeometry y="112" width="720" height="26" as="geometry" />
        </mxCell>
        <mxCell id="uQsPy5YsGrtOCWHAuRWt-253" value="+ arreterProjectile ():void" style="text;strokeColor=#b85450;fillColor=#f8cecc;align=left;verticalAlign=top;spacingLeft=4;spacingRight=4;overflow=hidden;rotatable=0;points=[[0,0.5],[1,0.5]];portConstraint=eastwest;whiteSpace=wrap;html=1;" vertex="1" parent="uQsPy5YsGrtOCWHAuRWt-247">
          <mxGeometry y="138" width="720" height="26" as="geometry" />
        </mxCell>
        <mxCell id="uQsPy5YsGrtOCWHAuRWt-254" value="Rejouer" style="swimlane;fontStyle=1;align=center;verticalAlign=top;childLayout=stackLayout;horizontal=1;startSize=26;horizontalStack=0;resizeParent=1;resizeParentMax=0;resizeLast=0;collapsible=1;marginBottom=0;whiteSpace=wrap;html=1;" vertex="1" parent="1">
          <mxGeometry x="-59.99999999999999" y="3540" width="720" height="164" as="geometry" />
        </mxCell>
        <mxCell id="uQsPy5YsGrtOCWHAuRWt-255" value="- monJeu: Jeu" style="text;strokeColor=none;fillColor=none;align=left;verticalAlign=top;spacingLeft=4;spacingRight=4;overflow=hidden;rotatable=0;points=[[0,0.5],[1,0.5]];portConstraint=eastwest;whiteSpace=wrap;html=1;" vertex="1" parent="uQsPy5YsGrtOCWHAuRWt-254">
          <mxGeometry y="26" width="720" height="26" as="geometry" />
        </mxCell>
        <mxCell id="uQsPy5YsGrtOCWHAuRWt-256" value="" style="line;strokeWidth=1;fillColor=none;align=left;verticalAlign=middle;spacingTop=-1;spacingLeft=3;spacingRight=3;rotatable=0;labelPosition=right;points=[];portConstraint=eastwest;strokeColor=inherit;" vertex="1" parent="uQsPy5YsGrtOCWHAuRWt-254">
          <mxGeometry y="52" width="720" height="8" as="geometry" />
        </mxCell>
        <mxCell id="uQsPy5YsGrtOCWHAuRWt-257" value="+ constructor(refScene:createjs.stage, unX:numer, unY:number, refJeu:jeu)" style="text;strokeColor=none;fillColor=none;align=left;verticalAlign=top;spacingLeft=4;spacingRight=4;overflow=hidden;rotatable=0;points=[[0,0.5],[1,0.5]];portConstraint=eastwest;whiteSpace=wrap;html=1;" vertex="1" parent="uQsPy5YsGrtOCWHAuRWt-254">
          <mxGeometry y="60" width="720" height="26" as="geometry" />
        </mxCell>
        <mxCell id="uQsPy5YsGrtOCWHAuRWt-258" value="&lt;font color=&quot;#ff0000&quot;&gt;# dessiner():void&lt;/font&gt;" style="text;strokeColor=none;fillColor=none;align=left;verticalAlign=top;spacingLeft=4;spacingRight=4;overflow=hidden;rotatable=0;points=[[0,0.5],[1,0.5]];portConstraint=eastwest;whiteSpace=wrap;html=1;" vertex="1" parent="uQsPy5YsGrtOCWHAuRWt-254">
          <mxGeometry y="86" width="720" height="26" as="geometry" />
        </mxCell>
        <mxCell id="uQsPy5YsGrtOCWHAuRWt-259" value="- rejouerJeu():void" style="text;strokeColor=none;fillColor=none;align=left;verticalAlign=top;spacingLeft=4;spacingRight=4;overflow=hidden;rotatable=0;points=[[0,0.5],[1,0.5]];portConstraint=eastwest;whiteSpace=wrap;html=1;" vertex="1" parent="uQsPy5YsGrtOCWHAuRWt-254">
          <mxGeometry y="112" width="720" height="26" as="geometry" />
        </mxCell>
        <mxCell id="uQsPy5YsGrtOCWHAuRWt-260" value="+ arreterBtnRejouer():void" style="text;strokeColor=#b85450;fillColor=#f8cecc;align=left;verticalAlign=top;spacingLeft=4;spacingRight=4;overflow=hidden;rotatable=0;points=[[0,0.5],[1,0.5]];portConstraint=eastwest;whiteSpace=wrap;html=1;" vertex="1" parent="uQsPy5YsGrtOCWHAuRWt-254">
          <mxGeometry y="138" width="720" height="26" as="geometry" />
        </mxCell>
        <mxCell id="uQsPy5YsGrtOCWHAuRWt-261" value="RejouerMort" style="swimlane;fontStyle=1;align=center;verticalAlign=top;childLayout=stackLayout;horizontal=1;startSize=26;horizontalStack=0;resizeParent=1;resizeParentMax=0;resizeLast=0;collapsible=1;marginBottom=0;whiteSpace=wrap;html=1;" vertex="1" parent="1">
          <mxGeometry x="-59.99999999999999" y="3740" width="720" height="138" as="geometry" />
        </mxCell>
        <mxCell id="uQsPy5YsGrtOCWHAuRWt-262" value="- monJeu: Jeu" style="text;strokeColor=none;fillColor=none;align=left;verticalAlign=top;spacingLeft=4;spacingRight=4;overflow=hidden;rotatable=0;points=[[0,0.5],[1,0.5]];portConstraint=eastwest;whiteSpace=wrap;html=1;" vertex="1" parent="uQsPy5YsGrtOCWHAuRWt-261">
          <mxGeometry y="26" width="720" height="26" as="geometry" />
        </mxCell>
        <mxCell id="uQsPy5YsGrtOCWHAuRWt-263" value="" style="line;strokeWidth=1;fillColor=none;align=left;verticalAlign=middle;spacingTop=-1;spacingLeft=3;spacingRight=3;rotatable=0;labelPosition=right;points=[];portConstraint=eastwest;strokeColor=inherit;" vertex="1" parent="uQsPy5YsGrtOCWHAuRWt-261">
          <mxGeometry y="52" width="720" height="8" as="geometry" />
        </mxCell>
        <mxCell id="uQsPy5YsGrtOCWHAuRWt-264" value="+ constructor(refScene:createjs.stage, unX:numer, unY:number, refJeu:jeu)" style="text;strokeColor=none;fillColor=none;align=left;verticalAlign=top;spacingLeft=4;spacingRight=4;overflow=hidden;rotatable=0;points=[[0,0.5],[1,0.5]];portConstraint=eastwest;whiteSpace=wrap;html=1;" vertex="1" parent="uQsPy5YsGrtOCWHAuRWt-261">
          <mxGeometry y="60" width="720" height="26" as="geometry" />
        </mxCell>
        <mxCell id="uQsPy5YsGrtOCWHAuRWt-265" value="&lt;font color=&quot;#ff0000&quot;&gt;# dessiner():void&lt;/font&gt;" style="text;strokeColor=none;fillColor=none;align=left;verticalAlign=top;spacingLeft=4;spacingRight=4;overflow=hidden;rotatable=0;points=[[0,0.5],[1,0.5]];portConstraint=eastwest;whiteSpace=wrap;html=1;" vertex="1" parent="uQsPy5YsGrtOCWHAuRWt-261">
          <mxGeometry y="86" width="720" height="26" as="geometry" />
        </mxCell>
        <mxCell id="uQsPy5YsGrtOCWHAuRWt-267" value="+ arreterRejouerMort():void" style="text;strokeColor=#b85450;fillColor=#f8cecc;align=left;verticalAlign=top;spacingLeft=4;spacingRight=4;overflow=hidden;rotatable=0;points=[[0,0.5],[1,0.5]];portConstraint=eastwest;whiteSpace=wrap;html=1;" vertex="1" parent="uQsPy5YsGrtOCWHAuRWt-261">
          <mxGeometry y="112" width="720" height="26" as="geometry" />
        </mxCell>
        <mxCell id="uQsPy5YsGrtOCWHAuRWt-268" value="Restart" style="swimlane;fontStyle=1;align=center;verticalAlign=top;childLayout=stackLayout;horizontal=1;startSize=26;horizontalStack=0;resizeParent=1;resizeParentMax=0;resizeLast=0;collapsible=1;marginBottom=0;whiteSpace=wrap;html=1;" vertex="1" parent="1">
          <mxGeometry x="-59.99999999999999" y="3920" width="720" height="138" as="geometry" />
        </mxCell>
        <mxCell id="uQsPy5YsGrtOCWHAuRWt-269" value="- monJeu: Jeu" style="text;strokeColor=none;fillColor=none;align=left;verticalAlign=top;spacingLeft=4;spacingRight=4;overflow=hidden;rotatable=0;points=[[0,0.5],[1,0.5]];portConstraint=eastwest;whiteSpace=wrap;html=1;" vertex="1" parent="uQsPy5YsGrtOCWHAuRWt-268">
          <mxGeometry y="26" width="720" height="26" as="geometry" />
        </mxCell>
        <mxCell id="uQsPy5YsGrtOCWHAuRWt-270" value="" style="line;strokeWidth=1;fillColor=none;align=left;verticalAlign=middle;spacingTop=-1;spacingLeft=3;spacingRight=3;rotatable=0;labelPosition=right;points=[];portConstraint=eastwest;strokeColor=inherit;" vertex="1" parent="uQsPy5YsGrtOCWHAuRWt-268">
          <mxGeometry y="52" width="720" height="8" as="geometry" />
        </mxCell>
        <mxCell id="uQsPy5YsGrtOCWHAuRWt-271" value="+ constructor(refScene:createjs.stage, unX:numer, unY:number, refJeu:jeu)" style="text;strokeColor=none;fillColor=none;align=left;verticalAlign=top;spacingLeft=4;spacingRight=4;overflow=hidden;rotatable=0;points=[[0,0.5],[1,0.5]];portConstraint=eastwest;whiteSpace=wrap;html=1;" vertex="1" parent="uQsPy5YsGrtOCWHAuRWt-268">
          <mxGeometry y="60" width="720" height="26" as="geometry" />
        </mxCell>
        <mxCell id="uQsPy5YsGrtOCWHAuRWt-272" value="&lt;font color=&quot;#ff0000&quot;&gt;# dessiner():void&lt;/font&gt;" style="text;strokeColor=none;fillColor=none;align=left;verticalAlign=top;spacingLeft=4;spacingRight=4;overflow=hidden;rotatable=0;points=[[0,0.5],[1,0.5]];portConstraint=eastwest;whiteSpace=wrap;html=1;" vertex="1" parent="uQsPy5YsGrtOCWHAuRWt-268">
          <mxGeometry y="86" width="720" height="26" as="geometry" />
        </mxCell>
        <mxCell id="uQsPy5YsGrtOCWHAuRWt-273" value="- debuterRestart():void" style="text;strokeColor=#b85450;fillColor=#f8cecc;align=left;verticalAlign=top;spacingLeft=4;spacingRight=4;overflow=hidden;rotatable=0;points=[[0,0.5],[1,0.5]];portConstraint=eastwest;whiteSpace=wrap;html=1;" vertex="1" parent="uQsPy5YsGrtOCWHAuRWt-268">
          <mxGeometry y="112" width="720" height="26" as="geometry" />
        </mxCell>
        <mxCell id="uQsPy5YsGrtOCWHAuRWt-274" value="" style="endArrow=diamondThin;endFill=1;endSize=24;html=1;rounded=0;startArrow=open;startFill=0;exitX=1;exitY=0;exitDx=0;exitDy=0;entryX=-0.006;entryY=0.058;entryDx=0;entryDy=0;entryPerimeter=0;" edge="1" parent="1" source="uQsPy5YsGrtOCWHAuRWt-131" target="uQsPy5YsGrtOCWHAuRWt-45">
          <mxGeometry width="160" relative="1" as="geometry">
            <mxPoint x="560" y="140" as="sourcePoint" />
            <mxPoint x="710" y="150" as="targetPoint" />
          </mxGeometry>
        </mxCell>
        <mxCell id="uQsPy5YsGrtOCWHAuRWt-286" value="1" style="edgeLabel;html=1;align=center;verticalAlign=middle;resizable=0;points=[];" vertex="1" connectable="0" parent="uQsPy5YsGrtOCWHAuRWt-274">
          <mxGeometry x="-0.719" y="1" relative="1" as="geometry">
            <mxPoint as="offset" />
          </mxGeometry>
        </mxCell>
        <mxCell id="uQsPy5YsGrtOCWHAuRWt-275" value="" style="endArrow=diamondThin;endFill=1;endSize=24;html=1;rounded=0;startArrow=open;startFill=0;exitX=1;exitY=0;exitDx=0;exitDy=0;entryX=-0.006;entryY=0.058;entryDx=0;entryDy=0;entryPerimeter=0;" edge="1" parent="1" source="uQsPy5YsGrtOCWHAuRWt-138">
          <mxGeometry width="160" relative="1" as="geometry">
            <mxPoint x="402" y="326" as="sourcePoint" />
            <mxPoint x="720" y="180" as="targetPoint" />
          </mxGeometry>
        </mxCell>
        <mxCell id="uQsPy5YsGrtOCWHAuRWt-287" value="3" style="edgeLabel;html=1;align=center;verticalAlign=middle;resizable=0;points=[];" vertex="1" connectable="0" parent="uQsPy5YsGrtOCWHAuRWt-275">
          <mxGeometry x="-0.7514" y="1" relative="1" as="geometry">
            <mxPoint as="offset" />
          </mxGeometry>
        </mxCell>
        <mxCell id="uQsPy5YsGrtOCWHAuRWt-276" value="" style="endArrow=diamondThin;endFill=1;endSize=24;html=1;rounded=0;startArrow=open;startFill=0;exitX=1;exitY=0;exitDx=0;exitDy=0;entryX=-0.006;entryY=0.058;entryDx=0;entryDy=0;entryPerimeter=0;" edge="1" parent="1" source="uQsPy5YsGrtOCWHAuRWt-146">
          <mxGeometry width="160" relative="1" as="geometry">
            <mxPoint x="480" y="826" as="sourcePoint" />
            <mxPoint x="720" y="526" as="targetPoint" />
          </mxGeometry>
        </mxCell>
        <mxCell id="uQsPy5YsGrtOCWHAuRWt-288" value="1" style="edgeLabel;html=1;align=center;verticalAlign=middle;resizable=0;points=[];" vertex="1" connectable="0" parent="uQsPy5YsGrtOCWHAuRWt-276">
          <mxGeometry x="-0.7416" y="2" relative="1" as="geometry">
            <mxPoint as="offset" />
          </mxGeometry>
        </mxCell>
        <mxCell id="uQsPy5YsGrtOCWHAuRWt-277" value="" style="endArrow=diamondThin;endFill=1;endSize=24;html=1;rounded=0;startArrow=open;startFill=0;exitX=1;exitY=0;exitDx=0;exitDy=0;entryX=-0.006;entryY=0.058;entryDx=0;entryDy=0;entryPerimeter=0;" edge="1" parent="1" source="uQsPy5YsGrtOCWHAuRWt-153">
          <mxGeometry width="160" relative="1" as="geometry">
            <mxPoint x="480" y="990" as="sourcePoint" />
            <mxPoint x="720" y="690" as="targetPoint" />
          </mxGeometry>
        </mxCell>
        <mxCell id="uQsPy5YsGrtOCWHAuRWt-289" value="1" style="edgeLabel;html=1;align=center;verticalAlign=middle;resizable=0;points=[];" vertex="1" connectable="0" parent="uQsPy5YsGrtOCWHAuRWt-277">
          <mxGeometry x="-0.7913" y="1" relative="1" as="geometry">
            <mxPoint y="1" as="offset" />
          </mxGeometry>
        </mxCell>
        <mxCell id="uQsPy5YsGrtOCWHAuRWt-279" value="" style="endArrow=diamondThin;endFill=1;endSize=24;html=1;rounded=0;startArrow=open;startFill=0;exitX=1;exitY=0;exitDx=0;exitDy=0;entryX=-0.006;entryY=0.058;entryDx=0;entryDy=0;entryPerimeter=0;" edge="1" parent="1" source="uQsPy5YsGrtOCWHAuRWt-192">
          <mxGeometry width="160" relative="1" as="geometry">
            <mxPoint x="660" y="1549" as="sourcePoint" />
            <mxPoint x="720" y="1439" as="targetPoint" />
          </mxGeometry>
        </mxCell>
        <mxCell id="uQsPy5YsGrtOCWHAuRWt-291" value="1" style="edgeLabel;html=1;align=center;verticalAlign=middle;resizable=0;points=[];" vertex="1" connectable="0" parent="uQsPy5YsGrtOCWHAuRWt-279">
          <mxGeometry x="-0.7614" y="-1" relative="1" as="geometry">
            <mxPoint as="offset" />
          </mxGeometry>
        </mxCell>
        <mxCell id="uQsPy5YsGrtOCWHAuRWt-280" value="" style="endArrow=diamondThin;endFill=1;endSize=24;html=1;rounded=0;startArrow=open;startFill=0;exitX=1;exitY=0;exitDx=0;exitDy=0;entryX=-0.006;entryY=0.058;entryDx=0;entryDy=0;entryPerimeter=0;" edge="1" parent="1" source="uQsPy5YsGrtOCWHAuRWt-228">
          <mxGeometry width="160" relative="1" as="geometry">
            <mxPoint x="1160" y="1690" as="sourcePoint" />
            <mxPoint x="960" y="1439" as="targetPoint" />
          </mxGeometry>
        </mxCell>
        <mxCell id="uQsPy5YsGrtOCWHAuRWt-292" value="infini" style="edgeLabel;html=1;align=center;verticalAlign=middle;resizable=0;points=[];" vertex="1" connectable="0" parent="uQsPy5YsGrtOCWHAuRWt-280">
          <mxGeometry x="-0.9491" y="-2" relative="1" as="geometry">
            <mxPoint as="offset" />
          </mxGeometry>
        </mxCell>
        <mxCell id="uQsPy5YsGrtOCWHAuRWt-281" value="" style="endArrow=diamondThin;endFill=1;endSize=24;html=1;rounded=0;startArrow=open;startFill=0;exitX=1;exitY=0;exitDx=0;exitDy=0;entryX=-0.006;entryY=0.058;entryDx=0;entryDy=0;entryPerimeter=0;" edge="1" parent="1" source="uQsPy5YsGrtOCWHAuRWt-238">
          <mxGeometry width="160" relative="1" as="geometry">
            <mxPoint x="870" y="2681" as="sourcePoint" />
            <mxPoint x="1070" y="1440" as="targetPoint" />
          </mxGeometry>
        </mxCell>
        <mxCell id="uQsPy5YsGrtOCWHAuRWt-293" value="1" style="edgeLabel;html=1;align=center;verticalAlign=middle;resizable=0;points=[];" vertex="1" connectable="0" parent="uQsPy5YsGrtOCWHAuRWt-281">
          <mxGeometry x="-0.962" y="1" relative="1" as="geometry">
            <mxPoint as="offset" />
          </mxGeometry>
        </mxCell>
        <mxCell id="uQsPy5YsGrtOCWHAuRWt-282" value="" style="endArrow=diamondThin;endFill=1;endSize=24;html=1;rounded=0;startArrow=open;startFill=0;exitX=1;exitY=0;exitDx=0;exitDy=0;entryX=-0.006;entryY=0.058;entryDx=0;entryDy=0;entryPerimeter=0;" edge="1" parent="1" source="uQsPy5YsGrtOCWHAuRWt-247">
          <mxGeometry width="160" relative="1" as="geometry">
            <mxPoint x="580" y="2950" as="sourcePoint" />
            <mxPoint x="1010" y="1440" as="targetPoint" />
          </mxGeometry>
        </mxCell>
        <mxCell id="uQsPy5YsGrtOCWHAuRWt-294" value="1" style="edgeLabel;html=1;align=center;verticalAlign=middle;resizable=0;points=[];" vertex="1" connectable="0" parent="uQsPy5YsGrtOCWHAuRWt-282">
          <mxGeometry x="-0.9603" y="-2" relative="1" as="geometry">
            <mxPoint as="offset" />
          </mxGeometry>
        </mxCell>
        <mxCell id="uQsPy5YsGrtOCWHAuRWt-283" value="" style="endArrow=diamondThin;endFill=1;endSize=24;html=1;rounded=0;startArrow=open;startFill=0;entryX=-0.006;entryY=0.058;entryDx=0;entryDy=0;entryPerimeter=0;" edge="1" parent="1">
          <mxGeometry width="160" relative="1" as="geometry">
            <mxPoint x="640" y="3320" as="sourcePoint" />
            <mxPoint x="910" y="1440" as="targetPoint" />
          </mxGeometry>
        </mxCell>
        <mxCell id="uQsPy5YsGrtOCWHAuRWt-295" value="1" style="edgeLabel;html=1;align=center;verticalAlign=middle;resizable=0;points=[];" vertex="1" connectable="0" parent="uQsPy5YsGrtOCWHAuRWt-283">
          <mxGeometry x="-0.9668" y="-2" relative="1" as="geometry">
            <mxPoint x="19" y="220" as="offset" />
          </mxGeometry>
        </mxCell>
        <mxCell id="uQsPy5YsGrtOCWHAuRWt-284" value="" style="endArrow=diamondThin;endFill=1;endSize=24;html=1;rounded=0;startArrow=open;startFill=0;entryX=-0.006;entryY=0.058;entryDx=0;entryDy=0;entryPerimeter=0;exitX=1;exitY=0;exitDx=0;exitDy=0;" edge="1" parent="1" source="uQsPy5YsGrtOCWHAuRWt-261">
          <mxGeometry width="160" relative="1" as="geometry">
            <mxPoint x="600" y="3320" as="sourcePoint" />
            <mxPoint x="870" y="1440" as="targetPoint" />
          </mxGeometry>
        </mxCell>
        <mxCell id="uQsPy5YsGrtOCWHAuRWt-296" value="1" style="edgeLabel;html=1;align=center;verticalAlign=middle;resizable=0;points=[];" vertex="1" connectable="0" parent="uQsPy5YsGrtOCWHAuRWt-284">
          <mxGeometry x="-0.9788" y="-1" relative="1" as="geometry">
            <mxPoint as="offset" />
          </mxGeometry>
        </mxCell>
        <mxCell id="uQsPy5YsGrtOCWHAuRWt-285" value="" style="endArrow=diamondThin;endFill=1;endSize=24;html=1;rounded=0;startArrow=open;startFill=0;entryX=-0.006;entryY=0.058;entryDx=0;entryDy=0;entryPerimeter=0;exitX=1;exitY=0;exitDx=0;exitDy=0;" edge="1" parent="1" source="uQsPy5YsGrtOCWHAuRWt-268">
          <mxGeometry width="160" relative="1" as="geometry">
            <mxPoint x="600" y="3520" as="sourcePoint" />
            <mxPoint x="830" y="1440" as="targetPoint" />
          </mxGeometry>
        </mxCell>
        <mxCell id="uQsPy5YsGrtOCWHAuRWt-297" value="1" style="edgeLabel;html=1;align=center;verticalAlign=middle;resizable=0;points=[];" vertex="1" connectable="0" parent="uQsPy5YsGrtOCWHAuRWt-285">
          <mxGeometry x="-0.9761" y="-1" relative="1" as="geometry">
            <mxPoint as="offset" />
          </mxGeometry>
        </mxCell>
        <mxCell id="uQsPy5YsGrtOCWHAuRWt-299" value="" style="endArrow=open;endFill=1;endSize=12;html=1;rounded=0;exitX=-0.002;exitY=-0.049;exitDx=0;exitDy=0;exitPerimeter=0;entryX=0;entryY=0;entryDx=0;entryDy=0;" edge="1" parent="1" source="uQsPy5YsGrtOCWHAuRWt-134" target="uQsPy5YsGrtOCWHAuRWt-221">
          <mxGeometry width="160" relative="1" as="geometry">
            <mxPoint x="-270" y="420" as="sourcePoint" />
            <mxPoint x="-110" y="420" as="targetPoint" />
          </mxGeometry>
        </mxCell>
        <mxCell id="uQsPy5YsGrtOCWHAuRWt-301" value="" style="endArrow=open;endFill=1;endSize=12;html=1;rounded=0;exitX=-0.002;exitY=-0.049;exitDx=0;exitDy=0;exitPerimeter=0;" edge="1" parent="1">
          <mxGeometry width="160" relative="1" as="geometry">
            <mxPoint x="-80" y="567" as="sourcePoint" />
            <mxPoint x="-830" y="2480" as="targetPoint" />
          </mxGeometry>
        </mxCell>
        <mxCell id="uQsPy5YsGrtOCWHAuRWt-302" value="" style="endArrow=open;endFill=1;endSize=12;html=1;rounded=0;exitX=0;exitY=0.5;exitDx=0;exitDy=0;entryX=0.316;entryY=0;entryDx=0;entryDy=0;entryPerimeter=0;" edge="1" parent="1" source="uQsPy5YsGrtOCWHAuRWt-150" target="uQsPy5YsGrtOCWHAuRWt-221">
          <mxGeometry width="160" relative="1" as="geometry">
            <mxPoint x="-730" y="1190" as="sourcePoint" />
            <mxPoint x="-570" y="1190" as="targetPoint" />
          </mxGeometry>
        </mxCell>
        <mxCell id="uQsPy5YsGrtOCWHAuRWt-303" value="" style="endArrow=open;endFill=1;endSize=12;html=1;rounded=0;exitX=0;exitY=0.5;exitDx=0;exitDy=0;entryX=0.451;entryY=-0.012;entryDx=0;entryDy=0;entryPerimeter=0;" edge="1" parent="1" target="uQsPy5YsGrtOCWHAuRWt-221">
          <mxGeometry width="160" relative="1" as="geometry">
            <mxPoint x="-80" y="1000" as="sourcePoint" />
            <mxPoint x="-610" y="2480" as="targetPoint" />
          </mxGeometry>
        </mxCell>
        <mxCell id="uQsPy5YsGrtOCWHAuRWt-304" value="" style="endArrow=open;endFill=1;endSize=12;html=1;rounded=0;entryX=0.595;entryY=0.012;entryDx=0;entryDy=0;entryPerimeter=0;exitX=0.002;exitY=0.764;exitDx=0;exitDy=0;exitPerimeter=0;" edge="1" parent="1" source="uQsPy5YsGrtOCWHAuRWt-189" target="uQsPy5YsGrtOCWHAuRWt-221">
          <mxGeometry width="160" relative="1" as="geometry">
            <mxPoint x="-87" y="1490" as="sourcePoint" />
            <mxPoint x="-140" y="1640" as="targetPoint" />
          </mxGeometry>
        </mxCell>
        <mxCell id="uQsPy5YsGrtOCWHAuRWt-305" value="" style="endArrow=open;endFill=1;endSize=12;html=1;rounded=0;exitX=-0.005;exitY=-0.027;exitDx=0;exitDy=0;exitPerimeter=0;entryX=0.75;entryY=0;entryDx=0;entryDy=0;" edge="1" parent="1" source="uQsPy5YsGrtOCWHAuRWt-198" target="uQsPy5YsGrtOCWHAuRWt-221">
          <mxGeometry width="160" relative="1" as="geometry">
            <mxPoint x="-320" y="2290" as="sourcePoint" />
            <mxPoint x="-160" y="2290" as="targetPoint" />
          </mxGeometry>
        </mxCell>
        <mxCell id="uQsPy5YsGrtOCWHAuRWt-306" value="" style="endArrow=open;endFill=1;endSize=12;html=1;rounded=0;entryX=1;entryY=0;entryDx=0;entryDy=0;exitX=-0.006;exitY=-0.225;exitDx=0;exitDy=0;exitPerimeter=0;" edge="1" parent="1" source="uQsPy5YsGrtOCWHAuRWt-232" target="uQsPy5YsGrtOCWHAuRWt-221">
          <mxGeometry width="160" relative="1" as="geometry">
            <mxPoint x="-380" y="2730" as="sourcePoint" />
            <mxPoint x="-220" y="2730" as="targetPoint" />
          </mxGeometry>
        </mxCell>
        <mxCell id="uQsPy5YsGrtOCWHAuRWt-307" value="" style="endArrow=open;endFill=1;endSize=12;html=1;rounded=0;exitX=-0.005;exitY=0.071;exitDx=0;exitDy=0;exitPerimeter=0;entryX=1;entryY=0.5;entryDx=0;entryDy=0;" edge="1" parent="1" source="uQsPy5YsGrtOCWHAuRWt-242" target="uQsPy5YsGrtOCWHAuRWt-223">
          <mxGeometry width="160" relative="1" as="geometry">
            <mxPoint x="-370" y="2980" as="sourcePoint" />
            <mxPoint x="-210" y="2980" as="targetPoint" />
          </mxGeometry>
        </mxCell>
        <mxCell id="uQsPy5YsGrtOCWHAuRWt-308" value="" style="endArrow=open;endFill=1;endSize=12;html=1;rounded=0;entryX=1;entryY=1;entryDx=0;entryDy=0;exitX=0;exitY=0.5;exitDx=0;exitDy=0;" edge="1" parent="1" source="uQsPy5YsGrtOCWHAuRWt-250" target="uQsPy5YsGrtOCWHAuRWt-221">
          <mxGeometry width="160" relative="1" as="geometry">
            <mxPoint x="-460" y="3080" as="sourcePoint" />
            <mxPoint x="-300" y="3080" as="targetPoint" />
          </mxGeometry>
        </mxCell>
        <mxCell id="uQsPy5YsGrtOCWHAuRWt-309" value="" style="endArrow=open;endFill=1;endSize=12;html=1;rounded=0;exitX=-0.007;exitY=-0.269;exitDx=0;exitDy=0;exitPerimeter=0;" edge="1" parent="1" source="uQsPy5YsGrtOCWHAuRWt-258">
          <mxGeometry width="160" relative="1" as="geometry">
            <mxPoint x="-410" y="3330" as="sourcePoint" />
            <mxPoint x="-600" y="2650" as="targetPoint" />
          </mxGeometry>
        </mxCell>
        <mxCell id="uQsPy5YsGrtOCWHAuRWt-310" value="" style="endArrow=open;endFill=1;endSize=12;html=1;rounded=0;exitX=0;exitY=0.5;exitDx=0;exitDy=0;" edge="1" parent="1" source="uQsPy5YsGrtOCWHAuRWt-264">
          <mxGeometry width="160" relative="1" as="geometry">
            <mxPoint x="-540" y="3450" as="sourcePoint" />
            <mxPoint x="-650" y="2650" as="targetPoint" />
          </mxGeometry>
        </mxCell>
        <mxCell id="uQsPy5YsGrtOCWHAuRWt-311" value="" style="endArrow=open;endFill=1;endSize=12;html=1;rounded=0;exitX=-0.005;exitY=0.995;exitDx=0;exitDy=0;exitPerimeter=0;" edge="1" parent="1" source="uQsPy5YsGrtOCWHAuRWt-269">
          <mxGeometry width="160" relative="1" as="geometry">
            <mxPoint x="-470" y="3740" as="sourcePoint" />
            <mxPoint x="-790" y="2650" as="targetPoint" />
          </mxGeometry>
        </mxCell>
        <mxCell id="uQsPy5YsGrtOCWHAuRWt-312" value="Pointage" style="swimlane;fontStyle=1;align=center;verticalAlign=top;childLayout=stackLayout;horizontal=1;startSize=26;horizontalStack=0;resizeParent=1;resizeParentMax=0;resizeLast=0;collapsible=1;marginBottom=0;whiteSpace=wrap;html=1;" vertex="1" parent="1">
          <mxGeometry x="-59.99999999999999" y="2960" width="720" height="86" as="geometry" />
        </mxCell>
        <mxCell id="uQsPy5YsGrtOCWHAuRWt-313" value="- monJeu: Jeu" style="text;strokeColor=none;fillColor=none;align=left;verticalAlign=top;spacingLeft=4;spacingRight=4;overflow=hidden;rotatable=0;points=[[0,0.5],[1,0.5]];portConstraint=eastwest;whiteSpace=wrap;html=1;" vertex="1" parent="uQsPy5YsGrtOCWHAuRWt-312">
          <mxGeometry y="26" width="720" height="26" as="geometry" />
        </mxCell>
        <mxCell id="uQsPy5YsGrtOCWHAuRWt-314" value="" style="line;strokeWidth=1;fillColor=none;align=left;verticalAlign=middle;spacingTop=-1;spacingLeft=3;spacingRight=3;rotatable=0;labelPosition=right;points=[];portConstraint=eastwest;strokeColor=inherit;" vertex="1" parent="uQsPy5YsGrtOCWHAuRWt-312">
          <mxGeometry y="52" width="720" height="8" as="geometry" />
        </mxCell>
        <mxCell id="uQsPy5YsGrtOCWHAuRWt-315" value="+ constructor(refScene:createjs.stage, unX:numer, unY:number, refFont : string, refColor: string, refText: string,&amp;nbsp; refJeu:jeu)" style="text;strokeColor=none;fillColor=none;align=left;verticalAlign=top;spacingLeft=4;spacingRight=4;overflow=hidden;rotatable=0;points=[[0,0.5],[1,0.5]];portConstraint=eastwest;whiteSpace=wrap;html=1;" vertex="1" parent="uQsPy5YsGrtOCWHAuRWt-312">
          <mxGeometry y="60" width="720" height="26" as="geometry" />
        </mxCell>
        <mxCell id="uQsPy5YsGrtOCWHAuRWt-318" value="" style="endArrow=diamondThin;endFill=1;endSize=24;html=1;rounded=0;startArrow=open;startFill=0;exitX=1;exitY=0;exitDx=0;exitDy=0;entryX=-0.006;entryY=0.058;entryDx=0;entryDy=0;entryPerimeter=0;" edge="1" parent="1" source="uQsPy5YsGrtOCWHAuRWt-312">
          <mxGeometry width="160" relative="1" as="geometry">
            <mxPoint x="690" y="3340" as="sourcePoint" />
            <mxPoint x="1040" y="1440" as="targetPoint" />
          </mxGeometry>
        </mxCell>
        <mxCell id="uQsPy5YsGrtOCWHAuRWt-319" value="1" style="edgeLabel;html=1;align=center;verticalAlign=middle;resizable=0;points=[];" vertex="1" connectable="0" parent="uQsPy5YsGrtOCWHAuRWt-318">
          <mxGeometry x="-0.9603" y="-2" relative="1" as="geometry">
            <mxPoint as="offset" />
          </mxGeometry>
        </mxCell>
        <mxCell id="uQsPy5YsGrtOCWHAuRWt-323" value="" style="endArrow=block;endFill=1;html=1;edgeStyle=orthogonalEdgeStyle;align=left;verticalAlign=top;rounded=0;exitX=0.315;exitY=-0.015;exitDx=0;exitDy=0;exitPerimeter=0;entryX=0.564;entryY=1;entryDx=0;entryDy=0;entryPerimeter=0;" edge="1" parent="1" source="uQsPy5YsGrtOCWHAuRWt-180" target="uQsPy5YsGrtOCWHAuRWt-166">
          <mxGeometry x="-1" relative="1" as="geometry">
            <mxPoint x="150" y="1370" as="sourcePoint" />
            <mxPoint x="310" y="1370" as="targetPoint" />
          </mxGeometry>
        </mxCell>
        <mxCell id="uQsPy5YsGrtOCWHAuRWt-327" value="name" style="endArrow=block;endFill=1;html=1;edgeStyle=orthogonalEdgeStyle;align=left;verticalAlign=top;rounded=0;exitX=0;exitY=0;exitDx=0;exitDy=0;entryX=-0.004;entryY=0.862;entryDx=0;entryDy=0;entryPerimeter=0;" edge="1" parent="1" source="uQsPy5YsGrtOCWHAuRWt-228" target="uQsPy5YsGrtOCWHAuRWt-168">
          <mxGeometry x="-1" relative="1" as="geometry">
            <mxPoint x="-80" y="2630" as="sourcePoint" />
            <mxPoint x="-130" y="1210" as="targetPoint" />
            <Array as="points">
              <mxPoint x="-80" y="2788" />
              <mxPoint x="-110" y="2788" />
              <mxPoint x="-110" y="1240" />
              <mxPoint x="-100" y="1240" />
              <mxPoint x="-100" y="1200" />
            </Array>
          </mxGeometry>
        </mxCell>
        <mxCell id="uQsPy5YsGrtOCWHAuRWt-329" value="+ Text" style="swimlane;fontStyle=1;align=center;verticalAlign=top;childLayout=stackLayout;horizontal=1;startSize=26;horizontalStack=0;resizeParent=1;resizeParentMax=0;resizeLast=0;collapsible=1;marginBottom=0;whiteSpace=wrap;html=1;fillColor=#ffe6cc;strokeColor=#d79b00;" vertex="1" parent="1">
          <mxGeometry x="-1080" y="3120" width="160" height="138" as="geometry" />
        </mxCell>
        <mxCell id="uQsPy5YsGrtOCWHAuRWt-330" value="- x :number" style="text;strokeColor=none;fillColor=none;align=left;verticalAlign=top;spacingLeft=4;spacingRight=4;overflow=hidden;rotatable=0;points=[[0,0.5],[1,0.5]];portConstraint=eastwest;whiteSpace=wrap;html=1;" vertex="1" parent="uQsPy5YsGrtOCWHAuRWt-329">
          <mxGeometry y="26" width="160" height="26" as="geometry" />
        </mxCell>
        <mxCell id="uQsPy5YsGrtOCWHAuRWt-333" value="- y: number" style="text;strokeColor=none;fillColor=none;align=left;verticalAlign=top;spacingLeft=4;spacingRight=4;overflow=hidden;rotatable=0;points=[[0,0.5],[1,0.5]];portConstraint=eastwest;whiteSpace=wrap;html=1;" vertex="1" parent="uQsPy5YsGrtOCWHAuRWt-329">
          <mxGeometry y="52" width="160" height="26" as="geometry" />
        </mxCell>
        <mxCell id="uQsPy5YsGrtOCWHAuRWt-334" value="- text: number" style="text;strokeColor=none;fillColor=none;align=left;verticalAlign=top;spacingLeft=4;spacingRight=4;overflow=hidden;rotatable=0;points=[[0,0.5],[1,0.5]];portConstraint=eastwest;whiteSpace=wrap;html=1;" vertex="1" parent="uQsPy5YsGrtOCWHAuRWt-329">
          <mxGeometry y="78" width="160" height="26" as="geometry" />
        </mxCell>
        <mxCell id="uQsPy5YsGrtOCWHAuRWt-331" value="" style="line;strokeWidth=1;fillColor=none;align=left;verticalAlign=middle;spacingTop=-1;spacingLeft=3;spacingRight=3;rotatable=0;labelPosition=right;points=[];portConstraint=eastwest;strokeColor=inherit;" vertex="1" parent="uQsPy5YsGrtOCWHAuRWt-329">
          <mxGeometry y="104" width="160" height="8" as="geometry" />
        </mxCell>
        <mxCell id="uQsPy5YsGrtOCWHAuRWt-332" value="- appendText" style="text;strokeColor=none;fillColor=none;align=left;verticalAlign=top;spacingLeft=4;spacingRight=4;overflow=hidden;rotatable=0;points=[[0,0.5],[1,0.5]];portConstraint=eastwest;whiteSpace=wrap;html=1;" vertex="1" parent="uQsPy5YsGrtOCWHAuRWt-329">
          <mxGeometry y="112" width="160" height="26" as="geometry" />
        </mxCell>
        <mxCell id="uQsPy5YsGrtOCWHAuRWt-335" value="" style="endArrow=open;endFill=1;endSize=12;html=1;rounded=0;entryX=1;entryY=0;entryDx=0;entryDy=0;exitX=0;exitY=0.5;exitDx=0;exitDy=0;" edge="1" parent="1" source="uQsPy5YsGrtOCWHAuRWt-313" target="uQsPy5YsGrtOCWHAuRWt-329">
          <mxGeometry width="160" relative="1" as="geometry">
            <mxPoint x="-880" y="3070" as="sourcePoint" />
            <mxPoint x="-720" y="3070" as="targetPoint" />
          </mxGeometry>
        </mxCell>
        <mxCell id="uQsPy5YsGrtOCWHAuRWt-343" value="1" style="edgeLabel;html=1;align=center;verticalAlign=middle;resizable=0;points=[];" vertex="1" connectable="0" parent="uQsPy5YsGrtOCWHAuRWt-335">
          <mxGeometry x="0.8966" y="-2" relative="1" as="geometry">
            <mxPoint as="offset" />
          </mxGeometry>
        </mxCell>
        <mxCell id="uQsPy5YsGrtOCWHAuRWt-336" value="+ MovieClip" style="swimlane;fontStyle=1;align=center;verticalAlign=top;childLayout=stackLayout;horizontal=1;startSize=26;horizontalStack=0;resizeParent=1;resizeParentMax=0;resizeLast=0;collapsible=1;marginBottom=0;whiteSpace=wrap;html=1;fillColor=#ffe6cc;strokeColor=#d79b00;" vertex="1" parent="1">
          <mxGeometry x="-1080" y="2880" width="160" height="164" as="geometry" />
        </mxCell>
        <mxCell id="uQsPy5YsGrtOCWHAuRWt-337" value="- x:number" style="text;strokeColor=none;fillColor=none;align=left;verticalAlign=top;spacingLeft=4;spacingRight=4;overflow=hidden;rotatable=0;points=[[0,0.5],[1,0.5]];portConstraint=eastwest;whiteSpace=wrap;html=1;" vertex="1" parent="uQsPy5YsGrtOCWHAuRWt-336">
          <mxGeometry y="26" width="160" height="26" as="geometry" />
        </mxCell>
        <mxCell id="uQsPy5YsGrtOCWHAuRWt-340" value="-y: number" style="text;strokeColor=none;fillColor=none;align=left;verticalAlign=top;spacingLeft=4;spacingRight=4;overflow=hidden;rotatable=0;points=[[0,0.5],[1,0.5]];portConstraint=eastwest;whiteSpace=wrap;html=1;" vertex="1" parent="uQsPy5YsGrtOCWHAuRWt-336">
          <mxGeometry y="52" width="160" height="26" as="geometry" />
        </mxCell>
        <mxCell id="uQsPy5YsGrtOCWHAuRWt-341" value="-alpha : number" style="text;strokeColor=none;fillColor=none;align=left;verticalAlign=top;spacingLeft=4;spacingRight=4;overflow=hidden;rotatable=0;points=[[0,0.5],[1,0.5]];portConstraint=eastwest;whiteSpace=wrap;html=1;" vertex="1" parent="uQsPy5YsGrtOCWHAuRWt-336">
          <mxGeometry y="78" width="160" height="26" as="geometry" />
        </mxCell>
        <mxCell id="uQsPy5YsGrtOCWHAuRWt-342" value="- scale: number" style="text;strokeColor=none;fillColor=none;align=left;verticalAlign=top;spacingLeft=4;spacingRight=4;overflow=hidden;rotatable=0;points=[[0,0.5],[1,0.5]];portConstraint=eastwest;whiteSpace=wrap;html=1;" vertex="1" parent="uQsPy5YsGrtOCWHAuRWt-336">
          <mxGeometry y="104" width="160" height="26" as="geometry" />
        </mxCell>
        <mxCell id="uQsPy5YsGrtOCWHAuRWt-338" value="" style="line;strokeWidth=1;fillColor=none;align=left;verticalAlign=middle;spacingTop=-1;spacingLeft=3;spacingRight=3;rotatable=0;labelPosition=right;points=[];portConstraint=eastwest;strokeColor=inherit;" vertex="1" parent="uQsPy5YsGrtOCWHAuRWt-336">
          <mxGeometry y="130" width="160" height="8" as="geometry" />
        </mxCell>
        <mxCell id="uQsPy5YsGrtOCWHAuRWt-339" value="- addEventListener" style="text;strokeColor=none;fillColor=none;align=left;verticalAlign=top;spacingLeft=4;spacingRight=4;overflow=hidden;rotatable=0;points=[[0,0.5],[1,0.5]];portConstraint=eastwest;whiteSpace=wrap;html=1;" vertex="1" parent="uQsPy5YsGrtOCWHAuRWt-336">
          <mxGeometry y="138" width="160" height="26" as="geometry" />
        </mxCell>
        <mxCell id="uQsPy5YsGrtOCWHAuRWt-344" value="" style="endArrow=open;endFill=1;endSize=12;html=1;rounded=0;entryX=1;entryY=0;entryDx=0;entryDy=0;exitX=0;exitY=1;exitDx=0;exitDy=0;" edge="1" parent="1" source="uQsPy5YsGrtOCWHAuRWt-221">
          <mxGeometry width="160" relative="1" as="geometry">
            <mxPoint x="-180" y="2760" as="sourcePoint" />
            <mxPoint x="-1040" y="2881" as="targetPoint" />
          </mxGeometry>
        </mxCell>
        <mxCell id="uQsPy5YsGrtOCWHAuRWt-345" value="1" style="edgeLabel;html=1;align=center;verticalAlign=middle;resizable=0;points=[];" vertex="1" connectable="0" parent="uQsPy5YsGrtOCWHAuRWt-344">
          <mxGeometry x="0.8966" y="-2" relative="1" as="geometry">
            <mxPoint as="offset" />
          </mxGeometry>
        </mxCell>
        <mxCell id="uQsPy5YsGrtOCWHAuRWt-346" value="&lt;font style=&quot;font-size: 22px;&quot;&gt;LOUIS-ÉMILE VROMET&lt;/font&gt;" style="text;html=1;strokeColor=none;fillColor=none;align=center;verticalAlign=middle;whiteSpace=wrap;rounded=0;" vertex="1" parent="1">
          <mxGeometry x="-880" y="51" width="60" height="30" as="geometry" />
        </mxCell>
        <mxCell id="uQsPy5YsGrtOCWHAuRWt-347" value="LE_MOUSTIQUE" style="text;html=1;strokeColor=none;fillColor=none;align=center;verticalAlign=middle;whiteSpace=wrap;rounded=0;" vertex="1" parent="1">
          <mxGeometry x="-860" y="192" width="60" height="30" as="geometry" />
        </mxCell>
      </root>
    </mxGraphModel>
  </diagram>
</mxfile>
